<?xml version="1.0" encoding="UTF-8" standalone="no"?>
<svg
   xmlns:ns0="http://www.iki.fi/pav/software/textext/"
   xmlns:dc="http://purl.org/dc/elements/1.1/"
   xmlns:cc="http://creativecommons.org/ns#"
   xmlns:rdf="http://www.w3.org/1999/02/22-rdf-syntax-ns#"
   xmlns:svg="http://www.w3.org/2000/svg"
   xmlns="http://www.w3.org/2000/svg"
   xmlns:xlink="http://www.w3.org/1999/xlink"
   xmlns:sodipodi="http://sodipodi.sourceforge.net/DTD/sodipodi-0.dtd"
   xmlns:inkscape="http://www.inkscape.org/namespaces/inkscape"
   width="304.72px"
   height="212.59px"
   version="1.1"
   id="svg2"
   inkscape:version="0.48.3.1 r9886"
   sodipodi:docname="f2v2.svg">
  <metadata
     id="metadata364">
    <rdf:RDF>
      <cc:Work
         rdf:about="">
        <dc:format>image/svg+xml</dc:format>
        <dc:type
           rdf:resource="http://purl.org/dc/dcmitype/StillImage" />
        <dc:title />
      </cc:Work>
    </rdf:RDF>
  </metadata>
  <sodipodi:namedview
     pagecolor="#ffffff"
     bordercolor="#666666"
     borderopacity="1"
     objecttolerance="10"
     gridtolerance="10"
     guidetolerance="10"
     inkscape:pageopacity="0"
     inkscape:pageshadow="2"
     inkscape:window-width="956"
     inkscape:window-height="1004"
     id="namedview362"
     showgrid="false"
     inkscape:object-nodes="true"
     inkscape:zoom="1.3354503"
     inkscape:cx="250.77452"
     inkscape:cy="51.31236"
     inkscape:window-x="956"
     inkscape:window-y="25"
     inkscape:window-maximized="0"
     inkscape:current-layer="svg2">
    <inkscape:grid
       type="xygrid"
       id="grid3192" />
  </sodipodi:namedview>
  <desc
     id="desc4">Veusz output document</desc>
  <defs
     id="defs6">
    <marker
       inkscape:stockid="TriangleOutM"
       orient="auto"
       refY="0.0"
       refX="0.0"
       id="TriangleOutM"
       style="overflow:visible">
      <path
         id="path4264"
         d="M 5.77,0.0 L -2.88,5.0 L -2.88,-5.0 L 5.77,0.0 z "
         style="fill-rule:evenodd;stroke:#000000;stroke-width:1.0pt"
         transform="scale(0.4)" />
    </marker>
    <clipPath
       id="c0">
      <path
         d="m0,0l304.72,0l0,212.59l-304.72,0l0,-212.59"
         id="path9" />
    </clipPath>
    <clipPath
       id="c1">
      <path
         d="m21.25,7.08l188.89,0l0,184.25l-188.89,0l0,-184.25"
         id="path12" />
    </clipPath>
    <clipPath
       id="c2">
      <path
         d="m217.24,7.08l66.22,0l0,184.25l-66.22,0l0,-184.25"
         id="path15" />
    </clipPath>
    <marker
       inkscape:stockid="StopM"
       orient="auto"
       refY="0"
       refX="0"
       id="StopM"
       style="overflow:visible">
      <path
         id="path6447"
         d="M 0,5.65 0,-5.65"
         style="fill:none;stroke:#000000;stroke-width:1pt"
         transform="scale(0.4,0.4)"
         inkscape:connector-curvature="0" />
    </marker>
    <marker
       inkscape:stockid="StopM"
       orient="auto"
       refY="0"
       refX="0"
       id="marker4312"
       style="overflow:visible">
      <path
         id="path4314"
         d="M 0,5.65 0,-5.65"
         style="fill:none;stroke:#000000;stroke-width:1pt"
         transform="scale(0.4,0.4)"
         inkscape:connector-curvature="0" />
    </marker>
  </defs>
  <g
     style="fill-rule:evenodd;stroke:#000000;stroke-linecap:square;stroke-linejoin:bevel"
     id="g19"
     clip-path="url(#c0)">
    <g
       style="fill:#ffffff;stroke:none"
       id="g21">
      <path
         inkscape:connector-curvature="0"
         id="path23"
         d="m 21.25,7.08 188.89,0 0,184.25 -188.89,0 0,-184.25" />
    </g>
  </g>
  <g
     style="fill-rule:evenodd;stroke:#000000;stroke-linecap:square;stroke-linejoin:bevel"
     id="g25"
     clip-path="url(#c1)">
    <g
       style="fill:#808080;fill-opacity:0.4;stroke:#808080;stroke-width:1.25"
       id="g27">
      <path
         inkscape:connector-curvature="0"
         style="stroke-width:0.62500000000000000;stroke-miterlimit:4;stroke-dasharray:none;fill:#d7d7d7;fill-opacity:1"
         id="path29"
         d="m 21.25,191.33 62.96,0 128.42,-125.27 0,-61.41 -191.39,186.69" />
    </g>
    <g
       style="fill:#0000ff;fill-opacity:0.3;stroke:#808080;stroke-width:1.25;stroke-dasharray:5, 2.5"
       id="g31">
      <path
         inkscape:connector-curvature="0"
         style="fill:#d5e2f1;fill-opacity:1;stroke:none"
         id="path33"
         d="m 21.25,4.58 0,125.33 62.96,0 128.42,-125.27 0,-0.06 -191.39,0" />
    </g>
    <g
       style="fill:#ff0000;fill-opacity:0.4;stroke-width:0.62"
       id="g35">
      <path
         inkscape:connector-curvature="0"
         style="fill:#fbcbcb;fill-opacity:1;stroke:none"
         id="path37"
         d="m 21.25,191.33 62.96,-61.41 -62.96,0 0,61.41" />
    </g>
    <g
       style="fill:none;stroke:#808080;stroke-width:1.25"
       id="g39">
      <polyline
         style="fill:none;stroke-width:0.62500000000000000;stroke-miterlimit:4;stroke-dasharray:none;stroke:#000000"
         id="polyline41"
         points="21.25,129.92 28.25,129.92 35.25,129.92 42.24,129.92 49.24,129.92 56.24,129.92 63.23,129.92 70.23,129.92 77.22,129.92 84.22,129.92" />
    </g>
    <g
       style="fill:none;stroke:#808080;stroke-width:1.25;stroke-dasharray:5, 2.5"
       id="g43">
      <polyline
         style="fill:none;stroke-width:0.625;stroke-miterlimit:4;stroke-dasharray:none;stroke-dashoffset:0"
         id="polyline45"
         points="21.25,129.92 25.11,126.16 28.96,122.4 32.82,118.64 36.67,114.88 40.53,111.12 44.38,107.35 48.24,103.59 52.09,99.83 55.95,96.07 59.8,92.31 63.66,88.55 67.51,84.79 71.37,81.03 75.22,77.27 79.08,73.51 82.93,69.75 86.79,65.99 90.64,62.23 94.5,58.47 98.35,54.71 102.21,50.95 106.06,47.19 109.92,43.43 113.77,39.67 117.63,35.91 121.48,32.15 125.34,28.39 129.19,24.63 133.05,20.87 136.9,17.11 140.76,13.35 144.61,9.59 148.47,5.83" />
    </g>
    <g
       style="fill:none;stroke:#ff0000;stroke-width:1.25"
       id="g47">
      <polyline
         style="fill:none"
         id="polyline49"
         points="21.25,191.33 25.11,187.57 28.96,183.81 32.82,180.05 36.67,176.29 40.53,172.53 44.38,168.77 48.24,165.01 52.09,161.25 55.95,157.49 59.8,153.73 63.66,149.97 67.51,146.21 71.37,142.45 75.22,138.69 79.08,134.93 82.93,131.17 86.79,127.41 90.64,123.65 94.5,119.89 98.35,116.13 102.21,112.37 106.06,108.61 109.92,104.85 113.77,101.09 117.63,97.33 121.48,93.57 125.34,89.81 129.19,86.05 133.05,82.29 136.9,78.53 140.76,74.77 144.61,71.01 148.47,67.25 152.32,63.49 156.18,59.73 160.03,55.96 163.89,52.2 167.74,48.44 171.6,44.68 175.45,40.92 179.31,37.16 183.16,33.4 187.02,29.64 190.87,25.88 194.73,22.12 198.58,18.36 202.44,14.6 206.29,10.84 210.15,7.08" />
    </g>
  </g>
  <g
     style="fill-rule:evenodd;stroke:#000000;stroke-linecap:square;stroke-linejoin:bevel"
     id="g51"
     clip-path="url(#c0)">
    <g
       style="fill:none;stroke-width:1"
       id="g53">
      <path
         style="fill:#000000;fill-opacity:1;stroke:none"
         inkscape:connector-curvature="0"
         id="path55"
         d="m 33.54,58.51 0,-0.67 c 0.63,-0.06 1.07,-0.16 1.32,-0.31 0.25,-0.14 0.43,-0.48 0.56,-1.02 l 0.69,0 0,6.96 -0.93,0 0,-4.95 -1.64,0 m 5.45,3.88 1.02,0 0,1.06 -1.02,0 0,-1.06 m 3.15,-0.71 c 0.05,0.5 0.29,0.84 0.69,1.04 0.2,0.09 0.44,0.14 0.72,0.14 0.52,0 0.9,-0.16 1.15,-0.49 0.25,-0.33 0.37,-0.69 0.37,-1.1 0,-0.48 -0.14,-0.86 -0.44,-1.13 -0.29,-0.26 -0.65,-0.4 -1.07,-0.4 -0.3,0 -0.56,0.05 -0.77,0.17 -0.21,0.11 -0.4,0.27 -0.55,0.48 l -0.76,-0.04 0.53,-3.76 3.63,0 0,0.84 -2.97,0 -0.29,1.94 c 0.16,-0.12 0.31,-0.21 0.46,-0.27 0.26,-0.1 0.56,-0.16 0.9,-0.16 0.64,0 1.18,0.2 1.63,0.62 0.44,0.41 0.66,0.93 0.66,1.57 0,0.66 -0.2,1.24 -0.61,1.74 -0.4,0.5 -1.06,0.75 -1.95,0.75 -0.56,0 -1.07,-0.16 -1.51,-0.48 -0.43,-0.32 -0.68,-0.81 -0.73,-1.47 l 0.91,0" />
      <path
         style="fill:#000000;fill-opacity:1;stroke:none"
         inkscape:connector-curvature="0"
         id="path57"
         d="m 53.57,72.15 0,-0.67 c 0.63,-0.06 1.07,-0.16 1.32,-0.31 0.25,-0.14 0.43,-0.48 0.56,-1.02 l 0.69,0 0,6.96 -0.93,0 0,-4.95 -1.64,0" />
      <path
         style="fill:#000000;fill-opacity:1;stroke:none"
         inkscape:connector-curvature="0"
         id="path59"
         d="m 64.76,90.75 c 0.31,0.57 0.46,1.36 0.46,2.36 0,0.95 -0.14,1.73 -0.42,2.35 -0.41,0.89 -1.08,1.33 -2.01,1.33 -0.83,0 -1.46,-0.36 -1.87,-1.09 -0.34,-0.6 -0.51,-1.42 -0.51,-2.45 0,-0.79 0.1,-1.47 0.3,-2.04 0.38,-1.06 1.07,-1.59 2.08,-1.59 0.9,0 1.55,0.37 1.96,1.11 m -0.88,4.65 c 0.27,-0.4 0.4,-1.15 0.4,-2.25 0,-0.79 -0.09,-1.44 -0.29,-1.96 -0.19,-0.51 -0.57,-0.76 -1.13,-0.76 -0.51,0 -0.89,0.24 -1.13,0.73 -0.23,0.48 -0.35,1.2 -0.35,2.15 0,0.71 0.07,1.28 0.22,1.71 0.23,0.66 0.63,0.99 1.2,0.99 0.45,0 0.81,-0.2 1.08,-0.6 m 2.63,0.15 1.02,0 0,1.06 -1.02,0 0,-1.06 m 3.15,-0.71 c 0.05,0.5 0.29,0.84 0.69,1.04 0.2,0.09 0.44,0.14 0.72,0.14 0.52,0 0.9,-0.16 1.15,-0.49 0.25,-0.33 0.37,-0.69 0.37,-1.1 0,-0.48 -0.14,-0.86 -0.44,-1.13 -0.29,-0.26 -0.65,-0.4 -1.07,-0.4 -0.3,0 -0.56,0.05 -0.77,0.17 -0.21,0.11 -0.4,0.27 -0.55,0.48 l -0.76,-0.04 0.53,-3.76 3.63,0 0,0.84 -2.97,0 -0.29,1.94 c 0.16,-0.12 0.31,-0.21 0.46,-0.27 0.26,-0.1 0.56,-0.16 0.9,-0.16 0.64,0 1.18,0.2 1.63,0.62 0.44,0.41 0.66,0.93 0.66,1.57 0,0.66 -0.2,1.24 -0.61,1.74 -0.4,0.5 -1.06,0.75 -1.95,0.75 -0.56,0 -1.07,-0.16 -1.51,-0.48 -0.43,-0.32 -0.68,-0.81 -0.73,-1.47 l 0.91,0" />
      <path
         style="fill:#000000;fill-opacity:1;stroke:none"
         inkscape:connector-curvature="0"
         id="path61"
         d="m 85.61,109.36 c 0.31,0.57 0.46,1.36 0.46,2.36 0,0.95 -0.14,1.73 -0.42,2.35 -0.41,0.89 -1.08,1.33 -2.01,1.33 -0.83,0 -1.46,-0.36 -1.87,-1.09 -0.34,-0.6 -0.51,-1.42 -0.51,-2.45 0,-0.79 0.1,-1.47 0.3,-2.04 0.38,-1.06 1.07,-1.59 2.08,-1.59 0.9,0 1.55,0.37 1.96,1.11 m -0.88,4.65 c 0.27,-0.4 0.4,-1.15 0.4,-2.25 0,-0.79 -0.09,-1.44 -0.29,-1.96 -0.19,-0.51 -0.57,-0.76 -1.13,-0.76 -0.51,0 -0.89,0.24 -1.13,0.73 -0.23,0.48 -0.35,1.2 -0.35,2.15 0,0.71 0.07,1.28 0.22,1.71 0.23,0.66 0.63,0.99 1.2,0.99 0.45,0 0.81,-0.2 1.08,-0.6" />
    </g>
  </g>
  <g
     style="fill-rule:evenodd;stroke:#000000;stroke-linecap:square;stroke-linejoin:bevel"
     id="g73"
     clip-path="url(#c1)">
    <g
       style="fill:none;stroke-width:1.25"
       id="g75">
      <polyline
         style="fill:none"
         id="polyline77"
         points="21.88,170.66 22.51,162.26 23.14,155.9 23.77,150.6 24.4,145.99 25.03,141.87 25.66,138.11 26.29,134.65 26.92,131.43 27.55,128.42 28.18,125.57 28.81,122.88 29.44,120.32 30.07,117.87 30.7,115.53 31.33,113.29 31.96,111.13 32.59,109.04 33.22,107.03 33.85,105.09 34.48,103.21 35.11,101.38 35.74,99.61 36.37,97.89 37,96.21 37.63,94.58 38.26,92.99 38.89,91.44 39.51,89.93 40.14,88.45 40.77,87 41.4,85.59 42.03,84.21 42.66,82.85 43.29,81.52 43.92,80.22 44.55,78.95 45.18,77.7 45.81,76.47 46.44,75.26 47.07,74.08 47.7,72.92 48.33,71.77 48.96,70.65 49.59,69.54 50.22,68.46 50.85,67.39 51.48,66.33 52.11,65.29 52.74,64.27 53.37,63.27 54,62.27 54.63,61.3 55.26,60.33 55.89,59.38 56.52,58.44 57.14,57.52 57.77,56.61 58.4,55.71 59.03,54.82 59.66,53.94 60.29,53.08 60.92,52.22 61.55,51.38 62.18,50.54 62.81,49.72 63.44,48.9 64.07,48.1 64.7,47.3 65.33,46.51 65.96,45.74 66.59,44.97 67.22,44.2 67.85,43.45 68.48,42.71 69.11,41.97 69.74,41.24 70.37,40.52 71,39.81 71.63,39.1 72.26,38.4 72.89,37.7 73.52,37.02 74.15,36.34 74.78,35.67 75.4,35 76.03,34.34 76.66,33.68 77.29,33.03 77.92,32.39 78.55,31.76 79.18,31.12 79.81,30.5 80.44,29.88 81.07,29.26 81.7,28.65 82.33,28.05 82.96,27.45 83.59,26.85 84.22,26.26 84.85,25.68 85.48,25.1 86.11,24.52 86.74,23.95 87.37,23.38 88,22.82 88.63,22.26 89.26,21.71 89.89,21.16 90.52,20.61 91.15,20.07 91.78,19.53 92.41,19 93.03,18.47 93.66,17.94 94.29,17.41 94.92,16.89 95.55,16.38 96.18,15.87 96.81,15.36 97.44,14.85 98.07,14.35 98.7,13.85 99.33,13.35 99.96,12.86 100.59,12.37 101.22,11.88 101.85,11.39 102.48,10.91 103.11,10.43 103.74,9.96 104.37,9.49 105,9.02 105.63,8.55 106.26,8.08 106.89,7.62 107.52,7.16 108.15,6.7 108.78,6.25 109.35,5.83" />
    </g>
    <g
       style="fill:none;stroke-width:1.25"
       id="g79">
      <polyline
         style="fill:none"
         id="polyline81"
         points="21.88,173.56 22.51,166.39 23.14,161 23.77,156.52 24.4,152.64 25.03,149.19 25.66,146.06 26.29,143.18 26.92,140.51 27.55,138.02 28.18,135.67 28.81,133.46 29.44,131.36 30.07,129.36 30.7,127.45 31.33,125.63 31.96,123.87 32.59,122.19 33.22,120.57 33.85,119 34.48,117.49 35.11,116.02 35.74,114.6 36.37,113.22 37,111.89 37.63,110.59 38.26,109.32 38.89,108.09 39.51,106.89 40.14,105.72 40.77,104.58 41.4,103.47 42.03,102.38 42.66,101.31 43.29,100.27 43.92,99.25 44.55,98.25 45.18,97.27 45.81,96.31 46.44,95.37 47.07,94.45 47.7,93.55 48.33,92.66 48.96,91.79 49.59,90.93 50.22,90.09 50.85,89.26 51.48,88.44 52.11,87.64 52.74,86.85 53.37,86.08 54,85.31 54.63,84.56 55.26,83.82 55.89,83.09 56.52,82.37 57.14,81.66 57.77,80.96 58.4,80.27 59.03,79.59 59.66,78.92 60.29,78.26 60.92,77.6 61.55,76.96 62.18,76.32 62.81,75.69 63.44,75.07 64.07,74.46 64.7,73.85 65.33,73.25 65.96,72.65 66.59,72.07 67.22,71.49 67.85,70.91 68.48,70.35 69.11,69.78 69.74,69.23 70.37,68.68 71,68.13 71.63,67.59 72.26,67.06 72.89,66.53 73.52,66.01 74.15,65.49 74.78,64.98 75.4,64.47 76.03,63.96 76.66,63.46 77.29,62.97 77.92,62.47 78.55,61.99 79.18,61.5 79.81,61.02 80.44,60.55 81.07,60.08 81.7,59.61 82.33,59.14 82.96,58.68 83.59,58.23 84.22,57.77 84.85,57.32 85.48,56.87 86.11,56.43 86.74,55.99 87.37,55.55 88,55.11 88.63,54.68 89.26,54.25 89.89,53.82 90.52,53.4 91.15,52.98 91.78,52.56 92.41,52.14 93.03,51.73 93.66,51.32 94.29,50.91 94.92,50.5 95.55,50.09 96.18,49.69 96.81,49.29 97.44,48.89 98.07,48.5 98.7,48.1 99.33,47.71 99.96,47.32 100.59,46.93 101.22,46.54 101.85,46.16 102.48,45.77 103.11,45.39 103.74,45.01 104.37,44.63 105,44.25 105.63,43.88 106.26,43.5 106.89,43.13 107.52,42.76 108.15,42.39 108.78,42.02 109.41,41.65 110.04,41.29 110.67,40.92 111.29,40.56 111.92,40.2 112.55,39.84 113.18,39.48 113.81,39.12 114.44,38.76 115.07,38.4 115.7,38.05 116.33,37.69 116.96,37.34 117.59,36.99 118.22,36.64 118.85,36.29 119.48,35.94 120.11,35.59 120.74,35.24 121.37,34.89 122,34.55 122.63,34.2 123.26,33.86 123.89,33.51 124.52,33.17 125.15,32.82 125.78,32.48 126.41,32.14 127.04,31.8 127.67,31.46 128.3,31.12 128.92,30.78 129.55,30.44 130.18,30.11 130.81,29.77 131.44,29.43 132.07,29.1 132.7,28.76 133.33,28.42 133.96,28.09 134.59,27.76 135.22,27.42 135.85,27.09 136.48,26.76 137.11,26.42 137.74,26.09 138.37,25.76 139,25.43 139.63,25.1 140.26,24.77 140.89,24.43 141.52,24.1 142.15,23.77 142.78,23.44 143.41,23.12 144.04,22.79 144.67,22.46 145.3,22.13 145.93,21.8 146.56,21.47 147.18,21.14 147.81,20.82 148.44,20.49 149.07,20.16 149.7,19.83 150.33,19.51 150.96,19.18 151.59,18.85 152.22,18.53 152.85,18.2 153.48,17.87 154.11,17.55 154.74,17.22 155.37,16.9 156,16.57 156.63,16.24 157.26,15.92 157.89,15.59 158.52,15.27 159.15,14.94 159.78,14.62 160.41,14.29 161.04,13.97 161.67,13.64 162.3,13.32 162.93,12.99 163.56,12.67 164.19,12.34 164.82,12.01 165.44,11.69 166.07,11.36 166.7,11.04 167.33,10.71 167.96,10.39 168.59,10.06 169.22,9.74 169.85,9.41 170.48,9.09 171.11,8.76 171.74,8.44 172.37,8.11 173,7.79 173.63,7.46 174.26,7.14 174.89,6.81 175.52,6.48 176.15,6.16 176.78,5.83 176.78,5.83" />
    </g>
    <g
       style="fill:none;stroke-width:1.25"
       id="g83">
      <polyline
         style="fill:none"
         id="polyline85"
         points="21.88,176.85 22.51,171.12 23.14,166.87 23.77,163.39 24.4,160.4 25.03,157.76 25.66,155.39 26.29,153.23 26.92,151.24 27.55,149.4 28.18,147.68 28.81,146.06 29.44,144.54 30.07,143.1 30.7,141.73 31.33,140.43 31.96,139.18 32.59,137.99 33.22,136.85 33.85,135.75 34.48,134.69 35.11,133.67 35.74,132.69 36.37,131.74 37,130.82 37.63,129.93 38.26,129.06 38.89,128.22 39.51,127.41 40.14,126.61 40.77,125.84 41.4,125.09 42.03,124.35 42.66,123.64 43.29,122.94 43.92,122.25 44.55,121.58 45.18,120.93 45.81,120.29 46.44,119.66 47.07,119.05 47.7,118.45 48.33,117.86 48.96,117.28 49.59,116.71 50.22,116.15 50.85,115.59 51.48,115.05 52.11,114.52 52.74,114 53.37,113.48 54,112.97 54.63,112.47 55.26,111.98 55.89,111.49 56.52,111.01 57.14,110.53 57.77,110.06 58.4,109.6 59.03,109.14 59.66,108.69 60.29,108.25 60.92,107.8 61.55,107.37 62.18,106.93 62.81,106.5 63.44,106.08 64.07,105.66 64.7,105.24 65.33,104.83 65.96,104.42 66.59,104.02 67.22,103.61 67.85,103.21 68.48,102.82 69.11,102.42 69.74,102.03 70.37,101.64 71,101.26 71.63,100.88 72.26,100.5 72.89,100.12 73.52,99.74 74.15,99.37 74.78,98.99 75.4,98.62 76.03,98.25 76.66,97.89 77.29,97.52 77.92,97.16 78.55,96.8 79.18,96.44 79.81,96.08 80.44,95.72 81.07,95.36 81.7,95.01 82.33,94.65 82.96,94.3 83.59,93.95 84.22,93.59 84.85,93.24 85.48,92.89 86.11,92.55 86.74,92.2 87.37,91.85 88,91.5 88.63,91.16 89.26,90.81 89.89,90.47 90.52,90.12 91.15,89.78 91.78,89.44 92.41,89.09 93.03,88.75 93.66,88.41 94.29,88.07 94.92,87.72 95.55,87.38 96.18,87.04 96.81,86.7 97.44,86.36 98.07,86.02 98.7,85.68 99.33,85.34 99.96,85 100.59,84.66 101.22,84.32 101.85,83.98 102.48,83.64 103.11,83.29 103.74,82.95 104.37,82.61 105,82.27 105.63,81.93 106.26,81.59 106.89,81.25 107.52,80.91 108.15,80.57 108.78,80.23 109.41,79.89 110.04,79.55 110.67,79.2 111.29,78.86 111.92,78.52 112.55,78.18 113.18,77.83 113.81,77.49 114.44,77.15 115.07,76.8 115.7,76.46 116.33,76.12 116.96,75.77 117.59,75.43 118.22,75.08 118.85,74.74 119.48,74.39 120.11,74.05 120.74,73.7 121.37,73.36 122,73.01 122.63,72.66 123.26,72.32 123.89,71.97 124.52,71.62 125.15,71.27 125.78,70.92 126.41,70.57 127.04,70.23 127.67,69.88 128.3,69.53 128.92,69.18 129.55,68.83 130.18,68.48 130.81,68.12 131.44,67.77 132.07,67.42 132.7,67.07 133.33,66.72 133.96,66.36 134.59,66.01 135.22,65.66 135.85,65.3 136.48,64.95 137.11,64.6 137.74,64.24 138.37,63.89 139,63.53 139.63,63.18 140.26,62.82 140.89,62.46 141.52,62.11 142.15,61.75 142.78,61.39 143.41,61.04 144.04,60.68 144.67,60.32 145.3,59.96 145.93,59.61 146.56,59.25 147.18,58.89 147.81,58.53 148.44,58.17 149.07,57.81 149.7,57.45 150.33,57.09 150.96,56.73 151.59,56.37 152.22,56.01 152.85,55.65 153.48,55.29 154.11,54.93 154.74,54.56 155.37,54.2 156,53.84 156.63,53.48 157.26,53.12 157.89,52.75 158.52,52.39 159.15,52.03 159.78,51.66 160.41,51.3 161.04,50.94 161.67,50.57 162.3,50.21 162.93,49.84 163.56,49.48 164.19,49.12 164.82,48.75 165.44,48.39 166.07,48.02 166.7,47.66 167.33,47.29 167.96,46.93 168.59,46.56 169.22,46.2 169.85,45.83 170.48,45.47 171.11,45.1 171.74,44.74 172.37,44.37 173,44 173.63,43.64 174.26,43.27 174.89,42.91 175.52,42.54 176.15,42.17 176.78,41.81 177.41,41.44 178.04,41.08 178.67,40.71 179.3,40.34 179.93,39.98 180.56,39.61 181.19,39.24 181.82,38.88 182.45,38.51 183.07,38.14 183.7,37.78 184.33,37.41 184.96,37.04 185.59,36.68 186.22,36.31 186.85,35.95 187.48,35.58 188.11,35.21 188.74,34.85 189.37,34.48 190,34.11 190.63,33.75 191.26,33.38 191.89,33.02 192.52,32.65 193.15,32.28 193.78,31.92 194.41,31.55 195.04,31.19 195.67,30.82 196.3,30.45 196.93,30.09 197.56,29.72 198.19,29.36 198.82,28.99 199.45,28.63 200.08,28.26 200.71,27.9 201.33,27.53 201.96,27.17 202.59,26.8 203.22,26.44 203.85,26.08 204.48,25.71 205.11,25.35 205.74,24.98 206.37,24.62 207,24.26 207.63,23.89 208.26,23.53 208.89,23.17 209.52,22.8 210.15,22.44 210.78,22.08 211.4,21.72" />
    </g>
    <g
       style="fill:none;stroke-width:1.25"
       id="g87">
      <polyline
         style="fill:none"
         id="polyline89"
         points="21.88,178.79 22.51,174 23.14,170.58 23.77,167.89 24.4,165.67 25.03,163.79 25.66,162.16 26.29,160.73 26.92,159.46 27.55,158.31 28.18,157.28 28.81,156.34 29.44,155.49 30.07,154.69 30.7,153.96 31.33,153.28 31.96,152.65 32.59,152.05 33.22,151.5 33.85,150.97 34.48,150.48 35.11,150.01 35.74,149.56 36.37,149.14 37,148.73 37.63,148.34 38.26,147.97 38.89,147.61 39.51,147.26 40.14,146.92 40.77,146.59 41.4,146.26 42.03,145.94 42.66,145.63 43.29,145.31 43.92,145 44.55,144.7 45.18,144.39 45.81,144.08 46.44,143.77 47.07,143.47 47.7,143.16 48.33,142.84 48.96,142.53 49.59,142.22 50.22,141.9 50.85,141.58 51.48,141.25 52.11,140.93 52.74,140.6 53.37,140.26 54,139.93 54.63,139.59 55.26,139.25 55.89,138.9 56.52,138.55 57.14,138.2 57.77,137.84 58.4,137.48 59.03,137.12 59.66,136.76 60.29,136.39 60.92,136.02 61.55,135.64 62.18,135.26 62.81,134.88 63.44,134.5 64.07,134.11 64.7,133.72 65.33,133.33 65.96,132.94 66.59,132.54 67.22,132.14 67.85,131.74 68.48,131.34 69.11,130.93 69.74,130.52 70.37,130.11 71,129.7 71.63,129.28 72.26,128.87 72.89,128.45 73.52,128.03 74.15,127.61 74.78,127.19 75.4,126.76 76.03,126.34 76.66,125.91 77.29,125.48 77.92,125.05 78.55,124.62 79.18,124.19 79.81,123.76 80.44,123.32 81.07,122.89 81.7,122.45 82.33,122.01 82.96,121.58 83.59,121.14 84.22,120.7 84.85,120.26 85.48,119.82 86.11,119.37 86.74,118.93 87.37,118.49 88,118.05 88.63,117.6 89.26,117.16 89.89,116.71 90.52,116.27 91.15,115.82 91.78,115.37 92.41,114.93 93.03,114.48 93.66,114.03 94.29,113.59 94.92,113.14 95.55,112.69 96.18,112.24 96.81,111.8 97.44,111.35 98.07,110.9 98.7,110.45 99.33,110 99.96,109.56 100.59,109.11 101.22,108.66 101.85,108.21 102.48,107.76 103.11,107.31 103.74,106.87 104.37,106.42 105,105.97 105.63,105.52 106.26,105.07 106.89,104.63 107.52,104.18 108.15,103.73 108.78,103.28 109.41,102.84 110.04,102.39 110.67,101.94 111.29,101.5 111.92,101.05 112.55,100.6 113.18,100.16 113.81,99.71 114.44,99.27 115.07,98.82 115.7,98.38 116.33,97.93 116.96,97.49 117.59,97.05 118.22,96.6 118.85,96.16 119.48,95.72 120.11,95.28 120.74,94.83 121.37,94.39 122,93.95 122.63,93.51 123.26,93.07 123.89,92.63 124.52,92.19 125.15,91.75 125.78,91.31 126.41,90.88 127.04,90.44 127.67,90 128.3,89.56 128.92,89.13 129.55,88.69 130.18,88.25 130.81,87.82 131.44,87.38 132.07,86.95 132.7,86.52 133.33,86.08 133.96,85.65 134.59,85.22 135.22,84.79 135.85,84.35 136.48,83.92 137.11,83.49 137.74,83.06 138.37,82.63 139,82.21 139.63,81.78 140.26,81.35 140.89,80.92 141.52,80.5 142.15,80.07 142.78,79.64 143.41,79.22 144.04,78.79 144.67,78.37 145.3,77.95 145.93,77.52 146.56,77.1 147.18,76.68 147.81,76.26 148.44,75.84 149.07,75.42 149.7,75 150.33,74.58 150.96,74.16 151.59,73.74 152.22,73.32 152.85,72.91 153.48,72.49 154.11,72.08 154.74,71.66 155.37,71.25 156,70.83 156.63,70.42 157.26,70.01 157.89,69.6 158.52,69.18 159.15,68.77 159.78,68.36 160.41,67.95 161.04,67.55 161.67,67.14 162.3,66.73 162.93,66.32 163.56,65.92 164.19,65.51 164.82,65.11 165.44,64.7 166.07,64.3 166.7,63.89 167.33,63.49 167.96,63.09 168.59,62.69 169.22,62.29 169.85,61.89 170.48,61.49 171.11,61.09 171.74,60.69 172.37,60.29 173,59.9 173.63,59.5 174.26,59.11 174.89,58.71 175.52,58.32 176.15,57.92 176.78,57.53 177.41,57.14 178.04,56.75 178.67,56.36 179.3,55.97 179.93,55.58 180.56,55.19 181.19,54.8 181.82,54.41 182.45,54.03 183.07,53.64 183.7,53.26 184.33,52.87 184.96,52.49 185.59,52.11 186.22,51.72 186.85,51.34 187.48,50.96 188.11,50.58 188.74,50.2 189.37,49.82 190,49.44 190.63,49.07 191.26,48.69 191.89,48.31 192.52,47.94 193.15,47.56 193.78,47.19 194.41,46.82 195.04,46.44 195.67,46.07 196.3,45.7 196.93,45.33 197.56,44.96 198.19,44.59 198.82,44.23 199.45,43.86 200.08,43.49 200.71,43.13 201.33,42.76 201.96,42.4 202.59,42.03 203.22,41.67 203.85,41.31 204.48,40.95 205.11,40.59 205.74,40.23 206.37,39.87 207,39.51 207.63,39.15 208.26,38.8 208.89,38.44 209.52,38.08 210.15,37.73 210.78,37.38 211.4,37.03" />
    </g>
  </g>
  <g
     id="g93"
     style="fill:#000000;fill-rule:evenodd;stroke:#000000;stroke-width:1.25;stroke-linecap:square;stroke-linejoin:bevel">
    <g
       transform="matrix(-0.5877,-0.809,0.809,-0.5877,98.7,120.21)"
       id="g95">
      <path
         d="M 0,0 90.66,0"
         id="path97"
         style="stroke-width:1.25007987;stroke-miterlimit:4;stroke-dasharray:none;marker-end:url(#TriangleOutM)"
         inkscape:connector-curvature="0" />
    </g>
  </g>
  <g
     id="g99"
     style="fill:none;stroke:#000000;stroke-width:1.25;stroke-linecap:square;stroke-linejoin:miter">
    <g
       transform="matrix(-0.5877,-0.809,0.809,-0.5877,45.41,46.86)"
       id="g101" />
  </g>
  <g
     id="g104"
     style="fill:none;stroke:#000000;stroke-width:0.62;stroke-linecap:butt;stroke-linejoin:bevel">
    <path
       d="m 21.25,191.33 0,-184.25"
       id="path106"
       inkscape:connector-curvature="0" />
    <path
       d="m 21.25,191.33 1.87,0 m -1.87,-12.28 1.87,0 m -1.87,-12.28 1.87,0 m -1.87,-12.29 1.87,0 m -1.87,-12.28 1.87,0 m -1.87,-12.28 1.87,0 m -1.87,-12.29 1.87,0 m -1.87,-12.28 1.87,0 m -1.87,-12.28 1.87,0 m -1.87,-12.29 1.87,0 m -1.87,-12.28 1.87,0 m -1.87,-12.28 1.87,0 m -1.87,-12.29 1.87,0 m -1.87,-12.28 1.87,0 m -1.87,-12.28 1.87,0 m -1.87,-12.29 1.87,0"
       id="path108"
       inkscape:connector-curvature="0" />
    <path
       d="m 21.25,191.33 3.75,0 m -3.75,-61.41 3.75,0 M 21.25,68.5 25,68.5 M 21.25,7.08 25,7.08"
       id="path110"
       inkscape:connector-curvature="0" />
  </g>
  <g
     id="g112"
     style="fill:none;stroke:#000000;stroke-width:1;stroke-linecap:square;stroke-linejoin:bevel">
    <g
       transform="matrix(0,-1,1,0,7.7,118.66)"
       id="g114">
      <path
         d="m 0.64,-7.19 0.87,0 0,2.67 c 0.2,-0.26 0.39,-0.44 0.56,-0.55 0.28,-0.18 0.63,-0.27 1.05,-0.27 0.75,0 1.27,0.26 1.54,0.79 0.14,0.28 0.21,0.69 0.21,1.2 l 0,3.35 -0.9,0 0,-3.29 c 0,-0.38 -0.04,-0.66 -0.14,-0.84 -0.15,-0.28 -0.45,-0.42 -0.89,-0.42 -0.36,0 -0.69,0.12 -0.99,0.37 -0.29,0.25 -0.44,0.72 -0.44,1.42 l 0,2.77 -0.87,0 0,-7.19 m -0.34,0.76 3.12,0 0,0.57 -3.12,0 0,-0.57"
         id="path116"
         inkscape:connector-curvature="0"
         style="fill:#000000;fill-opacity:1;stroke:none" />
      <path
         d="m 9.82,-1.53 c 0,0.27 0.08,0.48 0.25,0.62 0.15,0.15 0.34,0.22 0.56,0.22 0.2,0 0.38,-0.06 0.52,-0.18 0.14,-0.11 0.24,-0.25 0.31,-0.42 0.14,-0.36 0.21,-0.7 0.21,-1.04 -0.01,-1.11 -0.42,-2.07 -1.24,-2.87 l 0.96,0 c 0.37,0.41 0.66,0.85 0.86,1.3 0.2,0.44 0.31,0.97 0.31,1.56 0,0.63 -0.14,1.18 -0.42,1.66 -0.3,0.49 -0.79,0.75 -1.46,0.76 -0.32,0 -0.61,-0.09 -0.84,-0.26 C 9.6,-0.34 9.43,-0.57 9.34,-0.85 l -0.01,0 C 9.26,-0.57 9.1,-0.34 8.86,-0.18 8.62,-0.01 8.33,0.08 8,0.08 7.34,0.07 6.86,-0.18 6.55,-0.68 6.25,-1.15 6.1,-1.7 6.11,-2.34 c 0,-0.59 0.1,-1.11 0.31,-1.56 0.2,-0.45 0.48,-0.88 0.85,-1.3 l 0.96,0 c -0.81,0.79 -1.22,1.75 -1.24,2.87 0,0.33 0.07,0.67 0.23,1.04 0.08,0.17 0.19,0.31 0.33,0.42 0.12,0.12 0.28,0.18 0.48,0.18 0.24,0 0.43,-0.07 0.59,-0.22 0.14,-0.14 0.22,-0.34 0.22,-0.62 l 0,-2.47 0.95,0 0,2.47"
         id="path118"
         inkscape:connector-curvature="0"
         style="fill:#000000;fill-opacity:1;stroke:none" />
      <path
         d="m 15.46,0.61 c 0.16,-0.2 0.24,-0.51 0.24,-0.92 0,-0.25 -0.03,-0.46 -0.1,-0.64 -0.13,-0.34 -0.38,-0.51 -0.75,-0.51 -0.36,0 -0.61,0.18 -0.75,0.54 -0.07,0.19 -0.1,0.44 -0.1,0.74 0,0.24 0.03,0.44 0.1,0.61 0.13,0.32 0.38,0.48 0.75,0.48 0.24,0 0.45,-0.1 0.61,-0.3 m -1.97,-2.45 0.51,0 0,0.41 c 0.1,-0.14 0.22,-0.25 0.34,-0.33 0.17,-0.11 0.38,-0.17 0.62,-0.17 0.35,0 0.65,0.13 0.9,0.4 0.24,0.27 0.37,0.66 0.37,1.16 0,0.68 -0.17,1.17 -0.53,1.46 -0.22,0.18 -0.49,0.27 -0.79,0.27 -0.23,0 -0.43,-0.05 -0.59,-0.15 -0.09,-0.05 -0.19,-0.15 -0.31,-0.3 l 0,1.6 -0.52,0 0,-4.37 m 3.39,-1.18 0.52,0 0,4.3 -0.52,0 0,-4.3"
         id="path120"
         inkscape:connector-curvature="0"
         style="fill:#000000;fill-opacity:1;stroke:none" />
      <path
         d="m 20.08,-7.17 0.74,0 -2.27,7.17 -0.74,0 2.27,-7.17 m 3.46,-0.11 c -0.51,0.99 -0.84,1.72 -0.99,2.19 -0.23,0.71 -0.34,1.53 -0.34,2.47 0,0.94 0.13,1.8 0.39,2.58 0.16,0.48 0.48,1.17 0.96,2.08 l -0.59,0 C 22.5,1.3 22.21,0.83 22.09,0.62 21.98,0.42 21.86,0.14 21.72,-0.21 21.54,-0.69 21.42,-1.2 21.34,-1.75 21.31,-2.03 21.29,-2.3 21.29,-2.56 c 0,-0.96 0.15,-1.82 0.45,-2.57 0.19,-0.47 0.59,-1.19 1.2,-2.14 l 0.61,0 m 1.05,5.71 c 0.21,-0.44 0.63,-0.85 1.26,-1.21 l 0.93,-0.54 c 0.41,-0.24 0.71,-0.45 0.88,-0.62 0.26,-0.27 0.4,-0.57 0.4,-0.92 0,-0.4 -0.12,-0.73 -0.36,-0.96 -0.24,-0.23 -0.56,-0.35 -0.97,-0.35 -0.6,0 -1.01,0.22 -1.25,0.68 -0.12,0.24 -0.19,0.58 -0.2,1.01 l -0.89,0 c 0,-0.6 0.12,-1.1 0.33,-1.48 0.38,-0.67 1.05,-1.01 2.01,-1.01 0.8,0 1.38,0.21 1.75,0.64 0.36,0.43 0.55,0.91 0.55,1.44 0,0.55 -0.19,1.03 -0.59,1.43 -0.22,0.23 -0.63,0.51 -1.22,0.83 l -0.66,0.37 c -0.31,0.17 -0.56,0.34 -0.75,0.5 -0.32,0.28 -0.53,0.59 -0.61,0.94 l 3.81,0 0,0.83 -4.79,0 c 0.03,-0.6 0.15,-1.12 0.37,-1.57"
         id="path122"
         inkscape:connector-curvature="0"
         style="fill:#000000;fill-opacity:1;stroke:none" />
      <path
         d="m 30.37,-5.2 0.9,0 0,3.06 c 0,0.45 0.08,0.8 0.26,1.05 0.17,0.26 0.5,0.4 0.98,0.4 0.48,0 0.81,-0.13 0.99,-0.41 0.17,-0.25 0.26,-0.6 0.26,-1.04 l 0,-3.06 0.89,0 0,3.94 c -0.01,0.38 0.09,0.58 0.33,0.58 0.09,0 0.18,0 0.27,-0.02 l 0,0.7 C 35.17,0.05 34.98,0.09 34.7,0.09 34.43,0.08 34.23,0.01 34.11,-0.1 c -0.12,-0.1 -0.22,-0.27 -0.29,-0.5 -0.31,0.45 -0.74,0.68 -1.3,0.69 -0.48,0 -0.89,-0.21 -1.25,-0.65 l -0.01,0 0,2.51 -0.9,0 0,-7.15"
         id="path124"
         inkscape:connector-curvature="0"
         style="fill:#000000;fill-opacity:1;stroke:none" />
      <path
         d="m 35.93,2.04 c 0.51,-1 0.85,-1.74 1,-2.2 0.22,-0.69 0.34,-1.52 0.34,-2.46 0,-0.94 -0.13,-1.8 -0.39,-2.58 -0.16,-0.48 -0.48,-1.17 -0.96,-2.08 l 0.59,0 c 0.5,0.8 0.8,1.29 0.91,1.48 0.1,0.18 0.22,0.44 0.34,0.77 0.15,0.4 0.26,0.8 0.33,1.2 0.06,0.39 0.1,0.77 0.1,1.14 0,0.96 -0.15,1.82 -0.45,2.57 -0.19,0.48 -0.59,1.19 -1.19,2.14 l -0.61,0"
         id="path126"
         inkscape:connector-curvature="0"
         style="fill:#000000;fill-opacity:1;stroke:none" />
    </g>
    <path
       d="m 18.16,189.05 c 0.31,0.57 0.46,1.36 0.46,2.36 0,0.95 -0.14,1.73 -0.42,2.35 -0.41,0.89 -1.08,1.33 -2.01,1.33 -0.83,0 -1.46,-0.36 -1.87,-1.09 -0.34,-0.6 -0.51,-1.42 -0.51,-2.45 0,-0.79 0.1,-1.47 0.3,-2.04 0.38,-1.06 1.07,-1.59 2.08,-1.59 0.9,0 1.55,0.37 1.96,1.11 m -0.88,4.65 c 0.27,-0.4 0.4,-1.15 0.4,-2.25 0,-0.79 -0.09,-1.44 -0.29,-1.96 -0.19,-0.51 -0.57,-0.76 -1.13,-0.76 -0.51,0 -0.89,0.24 -1.13,0.73 -0.23,0.48 -0.35,1.2 -0.35,2.15 0,0.71 0.07,1.28 0.22,1.71 0.23,0.66 0.63,0.99 1.2,0.99 0.45,0 0.81,-0.2 1.08,-0.6"
       id="path128"
       inkscape:connector-curvature="0"
       style="fill:#000000;fill-opacity:1;stroke:none" />
    <path
       d="m 14.45,128.55 0,-0.67 c 0.63,-0.06 1.07,-0.16 1.32,-0.31 0.25,-0.14 0.43,-0.48 0.56,-1.02 l 0.69,0 0,6.96 -0.93,0 0,-4.95 -1.64,0"
       id="path130"
       inkscape:connector-curvature="0"
       style="fill:#000000;fill-opacity:1;stroke:none" />
    <path
       d="m 14.18,70.52 c 0.21,-0.44 0.63,-0.85 1.26,-1.21 l 0.93,-0.54 c 0.41,-0.24 0.71,-0.45 0.88,-0.62 0.26,-0.27 0.4,-0.57 0.4,-0.92 0,-0.4 -0.12,-0.73 -0.36,-0.96 -0.24,-0.23 -0.56,-0.35 -0.97,-0.35 -0.6,0 -1.01,0.22 -1.25,0.68 -0.12,0.24 -0.19,0.58 -0.2,1.01 l -0.89,0 c 0,-0.6 0.12,-1.1 0.33,-1.48 0.38,-0.67 1.05,-1.01 2.01,-1.01 0.8,0 1.38,0.21 1.75,0.64 0.36,0.43 0.55,0.91 0.55,1.44 0,0.55 -0.19,1.03 -0.59,1.43 -0.22,0.23 -0.63,0.51 -1.22,0.83 l -0.66,0.37 c -0.31,0.17 -0.56,0.34 -0.75,0.5 -0.32,0.28 -0.53,0.59 -0.61,0.94 l 3.81,0 0,0.83 -4.79,0 c 0.03,-0.6 0.15,-1.12 0.37,-1.57"
       id="path132"
       inkscape:connector-curvature="0"
       style="fill:#000000;fill-opacity:1;stroke:none" />
  </g>
  <g
     id="g136"
     style="fill:none;stroke:#000000;stroke-width:0.62;stroke-linecap:butt;stroke-linejoin:bevel">
    <path
       d="m 21.25,191.33 188.89,0"
       id="path138"
       inkscape:connector-curvature="0" />
    <path
       d="m 21.25,191.33 0,-1.87 m 15.75,1.87 0,-1.87 m 15.74,1.87 0,-1.87 m 15.74,1.87 0,-1.87 m 15.74,1.87 0,-1.87 m 15.74,1.87 0,-1.87 m 15.74,1.87 0,-1.87 m 15.74,1.87 0,-1.87 m 15.74,1.87 0,-1.87 m 15.75,1.87 0,-1.87 m 15.74,1.87 0,-1.87 m 15.74,1.87 0,-1.87 m 15.74,1.87 0,-1.87"
       id="path140"
       inkscape:connector-curvature="0" />
    <path
       d="m 21.25,191.33 0,-3.75 m 31.49,3.75 0,-3.75 m 31.48,3.75 0,-3.75 m 31.48,3.75 0,-3.75 m 31.48,3.75 0,-3.75 m 31.49,3.75 0,-3.75 m 31.48,3.75 0,-3.75"
       id="path142"
       inkscape:connector-curvature="0" />
  </g>
  <g
     id="g144"
     style="fill:none;stroke:#000000;stroke-width:1;stroke-linecap:square;stroke-linejoin:bevel">
    <path
       d="m 95.9,203.2 0.87,0 0,2.67 c 0.2,-0.26 0.39,-0.44 0.56,-0.55 0.28,-0.18 0.63,-0.27 1.05,-0.27 0.75,0 1.27,0.26 1.54,0.79 0.14,0.28 0.21,0.69 0.21,1.2 l 0,3.35 -0.9,0 0,-3.29 c 0,-0.38 -0.04,-0.66 -0.14,-0.84 -0.15,-0.28 -0.45,-0.42 -0.89,-0.42 -0.36,0 -0.69,0.12 -0.99,0.37 -0.29,0.25 -0.44,0.72 -0.44,1.42 l 0,2.77 -0.87,0 0,-7.19 m -0.34,0.76 3.12,0 0,0.57 -3.12,0 0,-0.57 m 6.33,1.2 1.39,4.25 1.46,-4.25 0.96,0 -1.97,5.22 -0.93,0 -1.92,-5.22 1.02,0"
       id="path146"
       inkscape:connector-curvature="0"
       style="fill:#000000;fill-opacity:1;stroke:none" />
    <path
       d="m 106.33,207.37 2.98,0 0,0.52 -2.4,0 0,1.3 2.11,0 0,0.51 -2.11,0 0,1.95 -0.58,0 0,-4.3"
       id="path148"
       inkscape:connector-curvature="0"
       style="fill:#000000;fill-opacity:1;stroke:none" />
    <path
       d="m 110.88,208.99 c 0.22,0.54 0.62,0.81 1.2,0.81 0.61,0 1.03,-0.28 1.26,-0.85 0.12,-0.31 0.19,-0.71 0.19,-1.21 0,-0.45 -0.07,-0.83 -0.21,-1.13 -0.23,-0.51 -0.65,-0.77 -1.25,-0.77 -0.38,0 -0.7,0.16 -0.97,0.49 -0.27,0.33 -0.4,0.84 -0.4,1.53 0,0.45 0.06,0.83 0.19,1.13 m 2.2,-3.61 c 0.16,0.11 0.31,0.28 0.46,0.51 l 0,-0.72 0.83,0 0,7.31 -0.88,0 0,-2.68 c -0.14,0.23 -0.34,0.42 -0.6,0.55 -0.25,0.13 -0.58,0.2 -0.96,0.2 -0.55,0 -1.05,-0.21 -1.49,-0.65 -0.43,-0.43 -0.65,-1.1 -0.65,-1.99 0,-0.83 0.2,-1.52 0.61,-2.06 0.41,-0.53 0.94,-0.8 1.59,-0.8 0.43,0 0.79,0.1 1.09,0.32 m 4.23,-2.15 0.74,0 -2.27,7.17 -0.74,0 2.27,-7.17 m 3.46,-0.11 c -0.51,0.99 -0.84,1.72 -0.99,2.19 -0.23,0.71 -0.34,1.53 -0.34,2.47 0,0.94 0.13,1.8 0.39,2.58 0.16,0.48 0.48,1.17 0.96,2.08 l -0.59,0 c -0.47,-0.74 -0.76,-1.21 -0.88,-1.42 -0.11,-0.2 -0.23,-0.48 -0.37,-0.83 -0.18,-0.48 -0.3,-0.99 -0.38,-1.54 -0.03,-0.28 -0.05,-0.55 -0.05,-0.81 0,-0.96 0.15,-1.82 0.45,-2.57 0.19,-0.47 0.59,-1.19 1.2,-2.14 l 0.61,0 m 1.05,5.71 c 0.21,-0.44 0.63,-0.85 1.26,-1.21 l 0.93,-0.54 c 0.41,-0.24 0.71,-0.45 0.88,-0.62 0.26,-0.27 0.4,-0.57 0.4,-0.92 0,-0.4 -0.12,-0.73 -0.36,-0.96 -0.24,-0.23 -0.56,-0.35 -0.97,-0.35 -0.6,0 -1.01,0.22 -1.25,0.68 -0.12,0.24 -0.19,0.58 -0.2,1.01 l -0.89,0 c 0,-0.6 0.12,-1.1 0.33,-1.48 0.38,-0.67 1.05,-1.01 2.01,-1.01 0.8,0 1.38,0.21 1.75,0.64 0.36,0.43 0.55,0.91 0.55,1.44 0,0.55 -0.19,1.03 -0.59,1.43 -0.22,0.23 -0.63,0.51 -1.22,0.83 l -0.66,0.37 c -0.31,0.17 -0.56,0.34 -0.75,0.5 -0.32,0.28 -0.53,0.59 -0.61,0.94 l 3.81,0 0,0.83 -4.79,0 c 0.03,-0.6 0.15,-1.12 0.37,-1.57"
       id="path150"
       inkscape:connector-curvature="0"
       style="fill:#000000;fill-opacity:1;stroke:none" />
    <path
       d="m 127.61,205.19 0.9,0 0,3.06 c 0,0.45 0.08,0.8 0.26,1.05 0.17,0.26 0.5,0.4 0.98,0.4 0.48,0 0.81,-0.13 0.99,-0.41 0.17,-0.25 0.26,-0.6 0.26,-1.04 l 0,-3.06 0.89,0 0,3.94 c -0.01,0.38 0.09,0.58 0.33,0.58 0.09,0 0.18,0 0.27,-0.02 l 0,0.7 c -0.08,0.05 -0.27,0.09 -0.55,0.09 -0.27,-0.01 -0.47,-0.08 -0.59,-0.19 -0.12,-0.1 -0.22,-0.27 -0.29,-0.5 -0.31,0.45 -0.74,0.68 -1.3,0.69 -0.48,0 -0.89,-0.21 -1.25,-0.65 l -0.01,0 0,2.51 -0.9,0 0,-7.15"
       id="path152"
       inkscape:connector-curvature="0"
       style="fill:#000000;fill-opacity:1;stroke:none" />
    <path
       d="m 133.17,212.43 c 0.51,-1 0.85,-1.74 1,-2.2 0.22,-0.69 0.34,-1.52 0.34,-2.46 0,-0.94 -0.13,-1.8 -0.39,-2.58 -0.16,-0.48 -0.48,-1.17 -0.96,-2.08 l 0.59,0 c 0.5,0.8 0.8,1.29 0.91,1.48 0.1,0.18 0.22,0.44 0.34,0.77 0.15,0.4 0.26,0.8 0.33,1.2 0.06,0.39 0.1,0.77 0.1,1.14 0,0.96 -0.15,1.82 -0.45,2.57 -0.19,0.48 -0.59,1.19 -1.19,2.14 l -0.61,0"
       id="path154"
       inkscape:connector-curvature="0"
       style="fill:#000000;fill-opacity:1;stroke:none" />
    <path
       d="m 23.14,195.36 c 0.31,0.57 0.46,1.36 0.46,2.36 0,0.95 -0.14,1.73 -0.42,2.35 -0.41,0.89 -1.08,1.33 -2.01,1.33 -0.83,0 -1.46,-0.36 -1.87,-1.09 -0.34,-0.6 -0.51,-1.42 -0.51,-2.45 0,-0.79 0.1,-1.47 0.3,-2.04 0.38,-1.06 1.07,-1.59 2.08,-1.59 0.9,0 1.55,0.37 1.96,1.11 m -0.88,4.65 c 0.27,-0.4 0.4,-1.15 0.4,-2.25 0,-0.79 -0.09,-1.44 -0.29,-1.96 -0.19,-0.51 -0.57,-0.76 -1.13,-0.76 -0.51,0 -0.89,0.24 -1.13,0.73 -0.23,0.48 -0.35,1.2 -0.35,2.15 0,0.71 0.07,1.28 0.22,1.71 0.23,0.66 0.63,0.99 1.2,0.99 0.45,0 0.81,-0.2 1.08,-0.6"
       id="path156"
       inkscape:connector-curvature="0"
       style="fill:#000000;fill-opacity:1;stroke:none" />
    <path
       d="m 82.4,196.28 0,-0.67 c 0.63,-0.06 1.07,-0.16 1.32,-0.31 0.25,-0.14 0.43,-0.48 0.56,-1.02 l 0.69,0 0,6.96 -0.93,0 0,-4.95 -1.64,0"
       id="path160"
       inkscape:connector-curvature="0"
       style="fill:#000000;fill-opacity:1;stroke:none" />
    <path
       d="m 145.09,199.66 c 0.21,-0.44 0.63,-0.85 1.26,-1.21 l 0.93,-0.54 c 0.41,-0.24 0.71,-0.45 0.88,-0.62 0.26,-0.27 0.4,-0.57 0.4,-0.92 0,-0.4 -0.12,-0.73 -0.36,-0.96 -0.24,-0.23 -0.56,-0.35 -0.97,-0.35 -0.6,0 -1.01,0.22 -1.25,0.68 -0.12,0.24 -0.19,0.58 -0.2,1.01 l -0.89,0 c 0,-0.6 0.12,-1.1 0.33,-1.48 0.38,-0.67 1.05,-1.01 2.01,-1.01 0.8,0 1.38,0.21 1.75,0.64 0.36,0.43 0.55,0.91 0.55,1.44 0,0.55 -0.19,1.03 -0.59,1.43 -0.22,0.23 -0.63,0.51 -1.22,0.83 l -0.66,0.37 c -0.31,0.17 -0.56,0.34 -0.75,0.5 -0.32,0.28 -0.53,0.59 -0.61,0.94 l 3.81,0 0,0.83 -4.79,0 c 0.03,-0.6 0.15,-1.12 0.37,-1.57"
       id="path164"
       inkscape:connector-curvature="0"
       style="fill:#000000;fill-opacity:1;stroke:none" />
  </g>
  <g
     id="g170"
     style="fill:none;stroke:#000000;stroke-width:0.62;stroke-linecap:butt;stroke-linejoin:bevel">
    <path
       d="m 210.15,191.33 0,-184.25"
       id="path172"
       inkscape:connector-curvature="0" />
    <path
       d="m 210.15,191.33 -1.87,0 m 1.87,-12.28 -1.87,0 m 1.87,-12.28 -1.87,0 m 1.87,-12.29 -1.87,0 m 1.87,-12.28 -1.87,0 m 1.87,-12.28 -1.87,0 m 1.87,-12.29 -1.87,0 m 1.87,-12.28 -1.87,0 m 1.87,-12.28 -1.87,0 m 1.87,-12.29 -1.87,0 m 1.87,-12.28 -1.87,0 m 1.87,-12.28 -1.87,0 m 1.87,-12.29 -1.87,0 m 1.87,-12.28 -1.87,0 m 1.87,-12.28 -1.87,0 m 1.87,-12.29 -1.87,0"
       id="path174"
       inkscape:connector-curvature="0" />
    <path
       d="m 210.15,191.33 -3.75,0 m 3.75,-61.41 -3.75,0 m 3.75,-61.42 -3.75,0 m 3.75,-61.42 -3.75,0"
       id="path176"
       inkscape:connector-curvature="0" />
    <path
       d="m 21.25,7.08 188.89,0"
       id="path178"
       inkscape:connector-curvature="0" />
    <path
       d="m 21.25,7.08 0,1.87 M 37,7.08 37,8.95 m 15.74,-1.87 0,1.87 m 15.74,-1.87 0,1.87 m 15.74,-1.87 0,1.87 m 15.74,-1.87 0,1.87 m 15.74,-1.87 0,1.87 m 15.74,-1.87 0,1.87 m 15.74,-1.87 0,1.87 m 15.75,-1.87 0,1.87 m 15.74,-1.87 0,1.87 m 15.74,-1.87 0,1.87 m 15.74,-1.87 0,1.87"
       id="path180"
       inkscape:connector-curvature="0" />
    <path
       d="m 21.25,7.08 0,3.75 m 31.49,-3.75 0,3.75 m 31.48,-3.75 0,3.75 m 31.48,-3.75 0,3.75 m 31.48,-3.75 0,3.75 m 31.49,-3.75 0,3.75 m 31.48,-3.75 0,3.75"
       id="path182"
       inkscape:connector-curvature="0" />
  </g>
  <g
     id="g184"
     style="fill:#ffffff;fill-rule:evenodd;stroke:none">
    <path
       d="m 217.24,7.08 66.22,0 0,184.25 -66.22,0 0,-184.25"
       id="path186"
       inkscape:connector-curvature="0" />
  </g>
  <g
     id="g194"
     style="fill:none;stroke:#000000;stroke-width:1.25;stroke-linecap:square;stroke-linejoin:miter">
    <g
       transform="matrix(-0.9998,0.0174,-0.0174,-0.9998,250.35,55.18)"
       id="g196" />
  </g>
  <g
     id="g206"
     style="fill:none;stroke:#000000;stroke-width:1.25;stroke-linecap:square;stroke-linejoin:miter">
    <g
       transform="matrix(0.0174,0.9998,-0.9998,0.0174,267.76,127.05)"
       id="g208" />
  </g>
  <g
     style="fill-rule:evenodd;stroke:#000000;stroke-linecap:square;stroke-linejoin:bevel"
     id="g212"
     clip-path="url(#c2)">
    <g
       style="fill:#0000ff;fill-opacity:0.3;stroke-width:0.62"
       id="g214">
      <path
         inkscape:connector-curvature="0"
         style="fill:#d5e2f1;fill-opacity:1;stroke:none"
         id="path216"
         d="m 250.35,129.92 -34.36,0 0,-124.08 34.36,0 0,124.08" />
    </g>
    <g
       style="fill:#ff0000;fill-opacity:0.4;stroke-width:0.62"
       id="g218">
      <path
         inkscape:connector-curvature="0"
         style="fill:#fbcbcb;fill-opacity:1"
         id="path220"
         d="m 250.35,191.33 34.36,0 0,-61.41 -34.36,0 0,61.41" />
    </g>
  </g>
  <g
     style="fill-rule:evenodd;stroke:#000000;stroke-linecap:square;stroke-linejoin:bevel"
     id="g260"
     clip-path="url(#c2)">
    <g
       style="fill:none;stroke:#808080;stroke-width:0.62"
       id="g262">
      <polyline
         style="fill:none;stroke:#000000"
         id="polyline264"
         points="217.24,129.92 218.59,129.92 219.94,129.92 221.29,129.92 222.64,129.92 223.99,129.92 225.35,129.92 226.7,129.92 228.05,129.92 229.4,129.92 230.75,129.92 232.1,129.92 233.45,129.92 234.81,129.92 236.16,129.92 237.51,129.92 238.86,129.92 240.21,129.92 241.56,129.92 242.91,129.92 244.27,129.92 245.62,129.92 246.97,129.92 248.32,129.92 249.67,129.92 251.02,129.92 252.38,129.92 253.73,129.92 255.08,129.92 256.43,129.92 257.78,129.92 259.13,129.92 260.48,129.92 261.84,129.92 263.19,129.92 264.54,129.92 265.89,129.92 267.24,129.92 268.59,129.92 269.94,129.92 271.3,129.92 272.65,129.92 274,129.92 275.35,129.92 276.7,129.92 278.05,129.92 279.41,129.92 280.76,129.92 282.11,129.92 283.46,129.92" />
    </g>
    <g
       style="fill:none;stroke:#808080;stroke-width:0.62"
       id="g266">
      <polyline
         style="fill:none"
         id="polyline268"
         points="250.35,7.08 250.35,10.84 250.35,14.6 250.35,18.36 250.35,22.12 250.35,25.88 250.35,29.64 250.35,33.4 250.35,37.16 250.35,40.92 250.35,44.68 250.35,48.44 250.35,52.2 250.35,55.96 250.35,59.73 250.35,63.49 250.35,67.25 250.35,71.01 250.35,74.77 250.35,78.53 250.35,82.29 250.35,86.05 250.35,89.81 250.35,93.57 250.35,97.33 250.35,101.09 250.35,104.85 250.35,108.61 250.35,112.37 250.35,116.13 250.35,119.89 250.35,123.65 250.35,127.41 250.35,131.17 250.35,134.93 250.35,138.69 250.35,142.45 250.35,146.21 250.35,149.97 250.35,153.73 250.35,157.49 250.35,161.25 250.35,165.01 250.35,168.77 250.35,172.53 250.35,176.29 250.35,180.05 250.35,183.81 250.35,187.57 250.35,191.33" />
    </g>
    <g
       style="fill:none;stroke-width:1.25"
       id="g270">
      <polyline
         style="fill:none"
         id="polyline272"
         points="250.35,191.33 250.71,170.66 250.92,162.26 251.03,155.9 251.07,150.6 251.04,145.99 250.96,141.87 250.84,138.11 250.67,134.65 250.46,131.43 250.22,128.42 249.95,125.57 249.65,122.88 249.32,120.32 248.97,117.87 248.59,115.53 248.2,113.29 247.78,111.13 247.35,109.04 246.89,107.03 246.42,105.09 245.94,103.21 245.44,101.38 244.92,99.61 244.39,97.89 243.85,96.21 243.3,94.58 242.74,92.99 242.17,91.44 241.58,89.93 240.99,88.45 240.39,87 239.78,85.59 239.16,84.21 238.53,82.85 237.89,81.52 237.25,80.22 236.6,78.95 235.95,77.7 235.29,76.47 234.62,75.26 233.95,74.08 233.27,72.92 232.59,71.77 231.9,70.65 231.21,69.54 230.52,68.46 229.82,67.39 229.11,66.33 228.4,65.29 227.69,64.27 226.98,63.27 226.26,62.27 225.54,61.3 224.82,60.33 224.09,59.38 223.37,58.44 222.64,57.52 221.9,56.61 221.17,55.71 220.43,54.82 219.7,53.94 218.96,53.08 218.22,52.22 217.47,51.38 216.73,50.54 215.99,49.72" />
    </g>
    <g
       style="fill:none;stroke-width:1.25"
       id="g274">
      <polyline
         style="fill:none"
         id="polyline276"
         points="250.35,191.33 250.93,173.56 251.3,166.39 251.56,161 251.72,156.52 251.79,152.64 251.81,149.19 251.76,146.06 251.66,143.18 251.52,140.51 251.33,138.02 251.11,135.67 250.86,133.46 250.57,131.36 250.26,129.36 249.92,127.45 249.55,125.63 249.16,123.87 248.75,122.19 248.33,120.57 247.88,119 247.42,117.49 246.94,116.02 246.45,114.6 245.94,113.22 245.42,111.89 244.89,110.59 244.35,109.32 243.79,108.09 243.23,106.89 242.66,105.72 242.08,104.58 241.49,103.47 240.89,102.38 240.29,101.31 239.67,100.27 239.06,99.25 238.43,98.25 237.8,97.27 237.17,96.31 236.53,95.37 235.89,94.45 235.24,93.55 234.59,92.66 233.93,91.79 233.28,90.93 232.61,90.09 231.95,89.26 231.28,88.44 230.61,87.64 229.94,86.85 229.27,86.08 228.59,85.31 227.91,84.56 227.24,83.82 226.56,83.09 225.87,82.37 225.19,81.66 224.51,80.96 223.83,80.27 223.14,79.59 222.46,78.92 221.77,78.26 221.09,77.6 220.4,76.96 219.72,76.32 219.03,75.69 218.34,75.07 217.66,74.46 216.98,73.85 216.29,73.25 215.99,72.98" />
    </g>
    <g
       style="fill:none;stroke-width:1.25"
       id="g278">
      <polyline
         style="fill:none"
         id="polyline280"
         points="250.35,191.33 251.53,176.85 252.4,171.12 253.07,166.87 253.59,163.39 253.98,160.4 254.28,157.76 254.49,155.39 254.62,153.23 254.69,151.24 254.7,149.4 254.66,147.68 254.58,146.06 254.45,144.54 254.28,143.1 254.08,141.73 253.85,140.43 253.6,139.18 253.31,137.99 253.01,136.85 252.68,135.75 252.33,134.69 251.97,133.67 251.59,132.69 251.19,131.74 250.78,130.82 250.35,129.93 249.92,129.06 249.47,128.22 249.01,127.41 248.55,126.61 248.07,125.84 247.59,125.09 247.1,124.35 246.61,123.64 246.1,122.94 245.6,122.25 245.08,121.58 244.57,120.93 244.05,120.29 243.52,119.66 242.99,119.05 242.46,118.45 241.93,117.86 241.39,117.28 240.85,116.71 240.31,116.15 239.77,115.59 239.23,115.05 238.68,114.52 238.14,114 237.59,113.48 237.04,112.97 236.5,112.47 235.95,111.98 235.4,111.49 234.85,111.01 234.31,110.53 233.76,110.06 233.21,109.6 232.67,109.14 232.12,108.69 231.58,108.25 231.03,107.8 230.49,107.37 229.95,106.93 229.41,106.5 228.87,106.08 228.33,105.66 227.8,105.24 227.26,104.83 226.73,104.42 226.2,104.02 225.66,103.61 225.14,103.21 224.61,102.82 224.08,102.42 223.56,102.03 223.04,101.64 222.52,101.26 222,100.88 221.49,100.5 220.97,100.12 220.46,99.74 219.95,99.37 219.44,98.99 218.94,98.62 218.44,98.25 217.93,97.89 217.44,97.52 216.94,97.16 216.45,96.8 215.99,96.46" />
    </g>
    <g
       style="fill:none;stroke-width:1.25"
       id="g282">
      <path
         d="m 250.35,191.33 3.2,-12.54 2.92,-4.79 2.66,-3.42 2.41,-2.69 2.18,-2.22 1.97,-1.88 1.78,-1.63 1.61,-1.43 1.45,-1.27 1.3,-1.15 1.17,-1.03 1.05,-0.94 0.94,-0.85 0.84,-0.8 0.74,-0.73 0.66,-0.68 0.58,-0.63 0.49,-0.6 0.43,-0.55 0.36,-0.53 0.29,-0.49 0.24,-0.47 0.17,-0.45 0.12,-0.42 0.06,-0.41 0.02,-0.39 -0.04,-0.37 -0.09,-0.36 -0.14,-0.35 -0.18,-0.34 -0.23,-0.33 -0.26,-0.33 -0.31,-0.32 -0.34,-0.31 -0.38,-0.32 -0.42,-0.31 -0.44,-0.3 -0.47,-0.31 -0.5,-0.31 -0.52,-0.31 -0.54,-0.3 -0.56,-0.31 -0.59,-0.32 -0.59,-0.31 -0.62,-0.31 -0.63,-0.32 -0.64,-0.32 -0.65,-0.33 -0.66,-0.32 -0.66,-0.33 -0.68,-0.34 -0.68,-0.33 -0.69,-0.34 -0.69,-0.34 -0.69,-0.35 -0.7,-0.35 -0.7,-0.35 -0.7,-0.36 -0.7,-0.36 -0.69,-0.36 -0.7,-0.36 -0.7,-0.37 -0.69,-0.37 -0.69,-0.38 -0.69,-0.38 -0.68,-0.38 -0.68,-0.38 -0.68,-0.39 -0.67,-0.39 -0.67,-0.39 -0.66,-0.39 -0.65,-0.4 -0.65,-0.4 -0.65,-0.4 -0.64,-0.4 -0.63,-0.41 -0.62,-0.41 -0.62,-0.41 -0.61,-0.41 -0.61,-0.42 -0.6,-0.41 -0.59,-0.42 -0.58,-0.42 -0.58,-0.42 -0.57,-0.42 -0.56,-0.43 -0.55,-0.42 -0.55,-0.43 -0.54,-0.43 -0.53,-0.43 -0.53,-0.43 -0.52,-0.43 -0.51,-0.43 -0.5,-0.44 -0.5,-0.43 -0.48,-0.44 -0.48,-0.44 -0.48,-0.43 -0.46,-0.44 -0.46,-0.44 -0.46,-0.44 -0.44,-0.44 -0.44,-0.45 -0.43,-0.44 -0.42,-0.44 -0.42,-0.44 -0.41,-0.45 -0.4,-0.44 -0.39,-0.45 -0.39,-0.44 -0.39,-0.45 -0.37,-0.45 -0.37,-0.44 -0.36,-0.45 -0.36,-0.45 -0.35,-0.44 -0.34,-0.45 -0.34,-0.45 -0.33,-0.45 -0.32,-0.44 -0.32,-0.45 -0.31,-0.45 -0.31,-0.45 -0.3,-0.45 -0.29,-0.44 -0.29,-0.45 -0.28,-0.45 -0.28,-0.45 -0.27,-0.45 -0.26,-0.45 -0.26,-0.44 -0.25,-0.45 -0.25,-0.45 -0.24,-0.45 -0.24,-0.45 -0.23,-0.44 -0.23,-0.45 -0.22,-0.45 -0.22,-0.45 -0.21,-0.44 -0.21,-0.45 -0.2,-0.45 -0.19,-0.44 -0.19,-0.45 -0.19,-0.45 -0.18,-0.44 -0.18,-0.45 -0.17,-0.44 -0.17,-0.45 -0.16,-0.44 -0.16,-0.45 -0.15,-0.44 -0.15,-0.44 -0.15,-0.45 -0.14,-0.44 -0.13,-0.44 -0.13,-0.44 -0.13,-0.45 -0.13,-0.44 -0.11,-0.44 -0.12,-0.44 -0.11,-0.44 -0.11,-0.44 -0.1,-0.44 -0.1,-0.44 -0.09,-0.44 -0.09,-0.43 -0.09,-0.44 -0.08,-0.44 -0.08,-0.44 -0.08,-0.43 -0.07,-0.44 -0.07,-0.44 -0.06,-0.43 -0.06,-0.44 -0.06,-0.43 -0.05,-0.43 -0.05,-0.44 -0.05,-0.43 -0.04,-0.43 -0.04,-0.43 -0.04,-0.44 -0.03,-0.43 -0.03,-0.43 -0.03,-0.43 -0.02,-0.43 -0.02,-0.42 -0.02,-0.43 -0.01,-0.43 -0.01,-0.43 -0.01,-0.42 0,-0.43 0,-0.43 0,-0.42 0,-0.43 0.01,-0.42 0.01,-0.42 0.01,-0.43 0.02,-0.42 0.02,-0.42 0.02,-0.42 0.03,-0.42 0.02,-0.42 0.03,-0.42 0.04,-0.42 0.03,-0.42 0.04,-0.42 0.04,-0.42 0.04,-0.41 0.05,-0.42 0.05,-0.41 0.05,-0.42 0.05,-0.41 0.06,-0.42 0.06,-0.41 0.06,-0.41 0.06,-0.41 0.07,-0.42 0.07,-0.41 0.07,-0.41 0.07,-0.41 0.08,-0.4 0.07,-0.41 0.08,-0.41 0.08,-0.41 0.09,-0.4 0.08,-0.41 0.09,-0.4 0.09,-0.41 0.1,-0.4 0.09,-0.41 0.1,-0.4 0.1,-0.4 0.1,-0.4 0.1,-0.4 0.1,-0.4 0.11,-0.4 0.11,-0.4 0.11,-0.4 0.11,-0.4 0.12,-0.39 0.11,-0.4 0.12,-0.39 0.12,-0.4 0.12,-0.39 0.13,-0.4 0.12,-0.39 0.13,-0.39 0.13,-0.39 0.13,-0.39 0.13,-0.39 0.13,-0.39 0.14,-0.39 0.13,-0.39 0.14,-0.39 0.14,-0.38 0.14,-0.39 0.15,-0.38 0.14,-0.39 0.15,-0.38 0.15,-0.38 0.14,-0.39 0.16,-0.38 0.15,-0.38 0.15,-0.38 0.15,-0.38 0.16,-0.38 0.16,-0.38 0.16,-0.37 0.16,-0.38 0.16,-0.38 0.16,-0.37 0.16,-0.38 0.17,-0.37 0.16,-0.37 0.17,-0.38 0.17,-0.37 0.17,-0.37 0.17,-0.37 0.17,-0.37 0.17,-0.37 0.18,-0.36 0.17,-0.37 0.18,-0.37 0.18,-0.36 0.17,-0.37 0.18,-0.36 0.18,-0.37 0.18,-0.36 0.19,-0.36 0.18,-0.36 0.18,-0.36 0.18,-0.36 0.19,-0.36 0.19,-0.36 0.18,-0.36 0.19,-0.35 0.19,-0.36 0.19,-0.36 0.19,-0.35 0.19,-0.35 0.19,-0.36 0.19,-0.35 0.19,-0.35 0.19,-0.35 0.19,-0.35 0.2,-0.35 0.19,-0.35 0.2,-0.34 0.19,-0.35 0.2,-0.35 0.19,-0.34 0.2,-0.35 0.2,-0.34 0.19,-0.34 0.2,-0.34 0.2,-0.34 0.2,-0.34 0.19,-0.34 0.2,-0.34 0.2,-0.34 0.2,-0.34 0.2,-0.33 0.2,-0.34 0.2,-0.33 0.2,-0.33 0.2,-0.34 0.2,-0.33 0.19,-0.33 0.2,-0.33 0.2,-0.33 0.2,-0.33 0.2,-0.33 0.2,-0.32 0.2,-0.33 0.2,-0.32 0.19,-0.33 0.2,-0.32 0.2,-0.32 0.2,-0.33 0.19,-0.32 0.2,-0.32 0.2,-0.32 0.19,-0.31 0.2,-0.32 0.19,-0.32 0.2,-0.31 0.19,-0.32 0.19,-0.31 0.19,-0.31 0.2,-0.32 0.19,-0.31 0.19,-0.31 0.19,-0.31 0.18,-0.31 0.19,-0.3 0.19,-0.31 0.18,-0.31 0.19,-0.3 0.18,-0.3 0.18,-0.31 0.18,-0.3 0.18,-0.3 0.18,-0.3 0.17,-0.3 0.18,-0.3 0.17,-0.3 0.17,-0.29 0.17,-0.3 0.17,-0.29 0.17,-0.3 0.17,-0.29 0.16,-0.29 0.16,-0.29 0.16,-0.29 0.16,-0.29 0.15,-0.29 0.15,-0.29 0.15,-0.28 0.15,-0.29 0.14,-0.28 0.15,-0.29 0.14,-0.28 0.13,-0.28 0.13,-0.28 0.13,-0.28 0.13,-0.28 0.12,-0.28 0.12,-0.27 0.11,-0.28 0.11,-0.27 0.11,-0.28 0.1,-0.27 0.09,-0.27 0.09,-0.27 0.09,-0.27 0.07,-0.27 0.07,-0.27 0.06,-0.26 0.05,-0.27 0.03,-0.26 0.01,-0.27 0,-0.22"
         id="polyline284"
         style="" />
    </g>
  </g>
  <g
     style="fill-rule:evenodd;stroke:#000000;stroke-linecap:square;stroke-linejoin:bevel"
     id="g286"
     clip-path="url(#c0)">
    <g
       style="fill:none;stroke-width:0.62;stroke-linecap:butt"
       id="g288">
      <path
         inkscape:connector-curvature="0"
         id="path290"
         d="m 283.46,191.33 0,-184.25" />
      <path
         inkscape:connector-curvature="0"
         id="path292"
         d="m 283.46,191.33 -1.87,0 m 1.87,-12.28 -1.87,0 m 1.87,-12.28 -1.87,0 m 1.87,-12.29 -1.87,0 m 1.87,-12.28 -1.87,0 m 1.87,-12.28 -1.87,0 m 1.87,-12.29 -1.87,0 m 1.87,-12.28 -1.87,0 m 1.87,-12.28 -1.87,0 m 1.87,-12.29 -1.87,0 m 1.87,-12.28 -1.87,0 m 1.87,-12.28 -1.87,0 m 1.87,-12.29 -1.87,0 m 1.87,-12.28 -1.87,0 m 1.87,-12.28 -1.87,0 m 1.87,-12.29 -1.87,0" />
      <path
         inkscape:connector-curvature="0"
         id="path294"
         d="m 283.46,191.33 -3.75,0 m 3.75,-61.41 -3.75,0 m 3.75,-61.42 -3.75,0 m 3.75,-61.42 -3.75,0" />
    </g>
    <g
       style="fill:none;stroke-width:1"
       id="g296">
      <g
         id="g298"
         transform="matrix(0,1,-1,0,297.02,79.75)">
        <path
           style="fill:#000000;fill-opacity:1;stroke:none;fill-rule:nonzero"
           inkscape:connector-curvature="0"
           id="path300"
           d="m 0.64,-7.19 0.87,0 0,2.67 c 0.2,-0.26 0.39,-0.44 0.56,-0.55 0.28,-0.18 0.63,-0.27 1.05,-0.27 0.75,0 1.27,0.26 1.54,0.79 0.14,0.28 0.21,0.69 0.21,1.2 l 0,3.35 -0.9,0 0,-3.29 c 0,-0.38 -0.04,-0.66 -0.14,-0.84 -0.15,-0.28 -0.45,-0.42 -0.89,-0.42 -0.36,0 -0.69,0.12 -0.99,0.37 -0.29,0.25 -0.44,0.72 -0.44,1.42 l 0,2.77 -0.87,0 0,-7.19 m -0.34,0.76 3.12,0 0,0.57 -3.12,0 0,-0.57" />
        <path
           style="fill:#000000;fill-opacity:1;stroke:none"
           inkscape:connector-curvature="0"
           id="path302"
           d="m 9.82,-1.53 c 0,0.27 0.08,0.48 0.25,0.62 0.15,0.15 0.34,0.22 0.56,0.22 0.2,0 0.38,-0.06 0.52,-0.18 0.14,-0.11 0.24,-0.25 0.31,-0.42 0.14,-0.36 0.21,-0.7 0.21,-1.04 -0.01,-1.11 -0.42,-2.07 -1.24,-2.87 l 0.96,0 c 0.37,0.41 0.66,0.85 0.86,1.3 0.2,0.44 0.31,0.97 0.31,1.56 0,0.63 -0.14,1.18 -0.42,1.66 -0.3,0.49 -0.79,0.75 -1.46,0.76 -0.32,0 -0.61,-0.09 -0.84,-0.26 C 9.6,-0.34 9.43,-0.57 9.34,-0.85 l -0.01,0 C 9.26,-0.57 9.1,-0.34 8.86,-0.18 8.62,-0.01 8.33,0.08 8,0.08 7.34,0.07 6.86,-0.18 6.55,-0.68 6.25,-1.15 6.1,-1.7 6.11,-2.34 c 0,-0.59 0.1,-1.11 0.31,-1.56 0.2,-0.45 0.48,-0.88 0.85,-1.3 l 0.96,0 c -0.81,0.79 -1.22,1.75 -1.24,2.87 0,0.33 0.07,0.67 0.23,1.04 0.08,0.17 0.19,0.31 0.33,0.42 0.12,0.12 0.28,0.18 0.48,0.18 0.24,0 0.43,-0.07 0.59,-0.22 0.14,-0.14 0.22,-0.34 0.22,-0.62 l 0,-2.47 0.95,0 0,2.47" />
        <path
           style="fill:#000000;fill-opacity:1;stroke:none"
           inkscape:connector-curvature="0"
           id="path304"
           d="m 15.46,0.61 c 0.16,-0.2 0.24,-0.51 0.24,-0.92 0,-0.25 -0.03,-0.46 -0.1,-0.64 -0.13,-0.34 -0.38,-0.51 -0.75,-0.51 -0.36,0 -0.61,0.18 -0.75,0.54 -0.07,0.19 -0.1,0.44 -0.1,0.74 0,0.24 0.03,0.44 0.1,0.61 0.13,0.32 0.38,0.48 0.75,0.48 0.24,0 0.45,-0.1 0.61,-0.3 m -1.97,-2.45 0.51,0 0,0.41 c 0.1,-0.14 0.22,-0.25 0.34,-0.33 0.17,-0.11 0.38,-0.17 0.62,-0.17 0.35,0 0.65,0.13 0.9,0.4 0.24,0.27 0.37,0.66 0.37,1.16 0,0.68 -0.17,1.17 -0.53,1.46 -0.22,0.18 -0.49,0.27 -0.79,0.27 -0.23,0 -0.43,-0.05 -0.59,-0.15 -0.09,-0.05 -0.19,-0.15 -0.31,-0.3 l 0,1.6 -0.52,0 0,-4.37 m 3.39,-1.18 0.52,0 0,4.3 -0.52,0 0,-4.3" />
        <path
           style="fill:#000000;fill-opacity:1;stroke:none"
           inkscape:connector-curvature="0"
           id="path306"
           d="m 20.08,-7.17 0.74,0 -2.27,7.17 -0.74,0 2.27,-7.17 m 3.46,-0.11 c -0.51,0.99 -0.84,1.72 -0.99,2.19 -0.23,0.71 -0.34,1.53 -0.34,2.47 0,0.94 0.13,1.8 0.39,2.58 0.16,0.48 0.48,1.17 0.96,2.08 l -0.59,0 C 22.5,1.3 22.21,0.83 22.09,0.62 21.98,0.42 21.86,0.14 21.72,-0.21 21.54,-0.69 21.42,-1.2 21.34,-1.75 21.31,-2.03 21.29,-2.3 21.29,-2.56 c 0,-0.96 0.15,-1.82 0.45,-2.57 0.19,-0.47 0.59,-1.19 1.2,-2.14 l 0.61,0 m 1.05,5.71 c 0.21,-0.44 0.63,-0.85 1.26,-1.21 l 0.93,-0.54 c 0.41,-0.24 0.71,-0.45 0.88,-0.62 0.26,-0.27 0.4,-0.57 0.4,-0.92 0,-0.4 -0.12,-0.73 -0.36,-0.96 -0.24,-0.23 -0.56,-0.35 -0.97,-0.35 -0.6,0 -1.01,0.22 -1.25,0.68 -0.12,0.24 -0.19,0.58 -0.2,1.01 l -0.89,0 c 0,-0.6 0.12,-1.1 0.33,-1.48 0.38,-0.67 1.05,-1.01 2.01,-1.01 0.8,0 1.38,0.21 1.75,0.64 0.36,0.43 0.55,0.91 0.55,1.44 0,0.55 -0.19,1.03 -0.59,1.43 -0.22,0.23 -0.63,0.51 -1.22,0.83 l -0.66,0.37 c -0.31,0.17 -0.56,0.34 -0.75,0.5 -0.32,0.28 -0.53,0.59 -0.61,0.94 l 3.81,0 0,0.83 -4.79,0 c 0.03,-0.6 0.15,-1.12 0.37,-1.57" />
        <path
           style="fill:#000000;fill-opacity:1;stroke:none"
           inkscape:connector-curvature="0"
           id="path308"
           d="m 30.37,-5.2 0.9,0 0,3.06 c 0,0.45 0.08,0.8 0.26,1.05 0.17,0.26 0.5,0.4 0.98,0.4 0.48,0 0.81,-0.13 0.99,-0.41 0.17,-0.25 0.26,-0.6 0.26,-1.04 l 0,-3.06 0.89,0 0,3.94 c -0.01,0.38 0.09,0.58 0.33,0.58 0.09,0 0.18,0 0.27,-0.02 l 0,0.7 C 35.17,0.05 34.98,0.09 34.7,0.09 34.43,0.08 34.23,0.01 34.11,-0.1 c -0.12,-0.1 -0.22,-0.27 -0.29,-0.5 -0.31,0.45 -0.74,0.68 -1.3,0.69 -0.48,0 -0.89,-0.21 -1.25,-0.65 l -0.01,0 0,2.51 -0.9,0 0,-7.15" />
        <path
           style="fill:#000000;fill-opacity:1;stroke:none"
           inkscape:connector-curvature="0"
           id="path310"
           d="m 35.93,2.04 c 0.51,-1 0.85,-1.74 1,-2.2 0.22,-0.69 0.34,-1.52 0.34,-2.46 0,-0.94 -0.13,-1.8 -0.39,-2.58 -0.16,-0.48 -0.48,-1.17 -0.96,-2.08 l 0.59,0 c 0.5,0.8 0.8,1.29 0.91,1.48 0.1,0.18 0.22,0.44 0.34,0.77 0.15,0.4 0.26,0.8 0.33,1.2 0.06,0.39 0.1,0.77 0.1,1.14 0,0.96 -0.15,1.82 -0.45,2.57 -0.19,0.48 -0.59,1.19 -1.19,2.14 l -0.61,0" />
      </g>
      <path
         style="fill:#000000;fill-opacity:1;stroke:none"
         inkscape:connector-curvature="0"
         id="path312"
         d="m 290.33,189.05 c 0.31,0.57 0.46,1.36 0.46,2.36 0,0.95 -0.14,1.73 -0.42,2.35 -0.41,0.89 -1.08,1.33 -2.01,1.33 -0.83,0 -1.46,-0.36 -1.87,-1.09 -0.34,-0.6 -0.51,-1.42 -0.51,-2.45 0,-0.79 0.1,-1.47 0.3,-2.04 0.38,-1.06 1.07,-1.59 2.08,-1.59 0.9,0 1.55,0.37 1.96,1.11 m -0.88,4.65 c 0.27,-0.4 0.4,-1.15 0.4,-2.25 0,-0.79 -0.09,-1.44 -0.29,-1.96 -0.19,-0.51 -0.57,-0.76 -1.13,-0.76 -0.51,0 -0.89,0.24 -1.13,0.73 -0.23,0.48 -0.35,1.2 -0.35,2.15 0,0.71 0.07,1.28 0.22,1.71 0.23,0.66 0.63,0.99 1.2,0.99 0.45,0 0.81,-0.2 1.08,-0.6" />
      <path
         style="fill:#000000;fill-opacity:1;stroke:none"
         inkscape:connector-curvature="0"
         id="path314"
         d="m 286.61,128.55 0,-0.67 c 0.63,-0.06 1.07,-0.16 1.32,-0.31 0.25,-0.14 0.43,-0.48 0.56,-1.02 l 0.69,0 0,6.96 -0.93,0 0,-4.95 -1.64,0" />
      <path
         style="fill:#000000;fill-opacity:1;stroke:none"
         inkscape:connector-curvature="0"
         id="path316"
         d="m 286.34,70.52 c 0.21,-0.44 0.63,-0.85 1.26,-1.21 l 0.93,-0.54 c 0.41,-0.24 0.71,-0.45 0.88,-0.62 0.26,-0.27 0.4,-0.57 0.4,-0.92 0,-0.4 -0.12,-0.73 -0.36,-0.96 -0.24,-0.23 -0.56,-0.35 -0.97,-0.35 -0.6,0 -1.01,0.22 -1.25,0.68 -0.12,0.24 -0.19,0.58 -0.2,1.01 l -0.89,0 c 0,-0.6 0.12,-1.1 0.33,-1.48 0.38,-0.67 1.05,-1.01 2.01,-1.01 0.8,0 1.38,0.21 1.75,0.64 0.36,0.43 0.55,0.91 0.55,1.44 0,0.55 -0.19,1.03 -0.59,1.43 -0.22,0.23 -0.63,0.51 -1.22,0.83 l -0.66,0.37 c -0.31,0.17 -0.56,0.34 -0.75,0.5 -0.32,0.28 -0.53,0.59 -0.61,0.94 l 3.81,0 0,0.83 -4.79,0 c 0.03,-0.6 0.15,-1.12 0.37,-1.57" />
    </g>
    <g
       style="fill:none;stroke-width:0.62;stroke-linecap:butt"
       id="g320">
      <path
         inkscape:connector-curvature="0"
         id="path322"
         d="m 217.24,191.33 66.22,0" />
      <path
         inkscape:connector-curvature="0"
         id="path324"
         d="m 221.13,191.33 0,-1.87 m 9.74,1.87 0,-1.87 m 9.74,1.87 0,-1.87 m 9.74,1.87 0,-1.87 m 9.74,1.87 0,-1.87 m 9.74,1.87 0,-1.87 m 9.73,1.87 0,-1.87" />
      <path
         inkscape:connector-curvature="0"
         id="path326"
         d="m 230.87,191.33 0,-3.75 m 19.48,3.75 0,-3.75 m 19.48,3.75 0,-3.75" />
    </g>
    <g
       style="fill:none;stroke-width:1"
       id="g328">
      <path
         style="fill:#000000;fill-opacity:1;stroke:none;fill-rule:nonzero"
         inkscape:connector-curvature="0"
         id="path330"
         d="m 230.65,207.16 2.45,0 0,0.9 -2.45,0 0,-0.9 m 3.55,-3.96 0.87,0 0,2.67 c 0.2,-0.26 0.39,-0.44 0.56,-0.55 0.28,-0.18 0.63,-0.27 1.05,-0.27 0.75,0 1.27,0.26 1.54,0.79 0.14,0.28 0.21,0.69 0.21,1.2 l 0,3.35 -0.9,0 0,-3.29 c 0,-0.38 -0.04,-0.66 -0.14,-0.84 -0.15,-0.28 -0.45,-0.42 -0.89,-0.42 -0.36,0 -0.69,0.12 -0.99,0.37 -0.29,0.25 -0.44,0.72 -0.44,1.42 l 0,2.77 -0.87,0 0,-7.19 m -0.34,0.76 3.12,0 0,0.57 -3.12,0 0,-0.57" />
      <path
         style="fill:#000000;fill-opacity:1;stroke:none"
         inkscape:connector-curvature="0"
         id="path332"
         d="m 241.56,210.04 -1.52,-3.46 c -0.1,-0.26 -0.19,-0.45 -0.25,-0.56 -0.07,-0.09 -0.16,-0.14 -0.26,-0.14 -0.15,0 -0.25,0.01 -0.29,0.03 l 0,-0.72 c 0.11,-0.05 0.24,-0.08 0.4,-0.08 0.34,0 0.58,0.07 0.74,0.21 0.07,0.06 0.14,0.15 0.21,0.26 0.05,0.12 0.11,0.26 0.18,0.41 l 1.25,3.01 1.53,-3.82 0.94,0 -2.03,4.84 0,2.3 -0.89,0 0,-2.3" />
      <path
         style="fill:#000000;fill-opacity:1;stroke:none"
         inkscape:connector-curvature="0"
         id="path334"
         d="m 247.01,211.01 c 0.16,-0.2 0.24,-0.51 0.24,-0.92 0,-0.25 -0.03,-0.46 -0.1,-0.64 -0.13,-0.34 -0.38,-0.51 -0.75,-0.51 -0.36,0 -0.61,0.18 -0.75,0.54 -0.07,0.19 -0.1,0.44 -0.1,0.74 0,0.24 0.03,0.44 0.1,0.61 0.13,0.32 0.38,0.48 0.75,0.48 0.24,0 0.45,-0.1 0.61,-0.3 m -1.97,-2.45 0.51,0 0,0.41 c 0.1,-0.14 0.22,-0.25 0.34,-0.33 0.17,-0.11 0.38,-0.17 0.62,-0.17 0.35,0 0.65,0.13 0.9,0.4 0.24,0.27 0.37,0.66 0.37,1.16 0,0.68 -0.17,1.17 -0.53,1.46 -0.22,0.18 -0.49,0.27 -0.79,0.27 -0.23,0 -0.43,-0.05 -0.59,-0.15 -0.09,-0.05 -0.19,-0.15 -0.31,-0.3 l 0,1.6 -0.52,0 0,-4.37 m 3.39,-1.18 0.52,0 0,4.3 -0.52,0 0,-4.3" />
      <path
         style="fill:#000000;fill-opacity:1;stroke:none"
         inkscape:connector-curvature="0"
         id="path336"
         d="m 251.63,203.22 0.74,0 -2.27,7.17 -0.74,0 2.27,-7.17 m 3.46,-0.11 c -0.51,0.99 -0.84,1.72 -0.99,2.19 -0.23,0.71 -0.34,1.53 -0.34,2.47 0,0.94 0.13,1.8 0.39,2.58 0.16,0.48 0.48,1.17 0.96,2.08 l -0.59,0 c -0.47,-0.74 -0.76,-1.21 -0.88,-1.42 -0.11,-0.2 -0.23,-0.48 -0.37,-0.83 -0.18,-0.48 -0.3,-0.99 -0.38,-1.54 -0.03,-0.28 -0.05,-0.55 -0.05,-0.81 0,-0.96 0.15,-1.82 0.45,-2.57 0.19,-0.47 0.59,-1.19 1.2,-2.14 l 0.61,0 m 1.05,5.71 c 0.21,-0.44 0.63,-0.85 1.26,-1.21 l 0.93,-0.54 c 0.41,-0.24 0.71,-0.45 0.88,-0.62 0.26,-0.27 0.4,-0.57 0.4,-0.92 0,-0.4 -0.12,-0.73 -0.36,-0.96 -0.24,-0.23 -0.56,-0.35 -0.97,-0.35 -0.6,0 -1.01,0.22 -1.25,0.68 -0.12,0.24 -0.19,0.58 -0.2,1.01 l -0.89,0 c 0,-0.6 0.12,-1.1 0.33,-1.48 0.38,-0.67 1.05,-1.01 2.01,-1.01 0.8,0 1.38,0.21 1.75,0.64 0.36,0.43 0.55,0.91 0.55,1.44 0,0.55 -0.19,1.03 -0.59,1.43 -0.22,0.23 -0.63,0.51 -1.22,0.83 l -0.66,0.37 c -0.31,0.17 -0.56,0.34 -0.75,0.5 -0.32,0.28 -0.53,0.59 -0.61,0.94 l 3.81,0 0,0.83 -4.79,0 c 0.03,-0.6 0.15,-1.12 0.37,-1.57" />
      <path
         style="fill:#000000;fill-opacity:1;stroke:none"
         inkscape:connector-curvature="0"
         id="path338"
         d="m 261.92,205.19 0.9,0 0,3.06 c 0,0.45 0.08,0.8 0.26,1.05 0.17,0.26 0.5,0.4 0.98,0.4 0.48,0 0.81,-0.13 0.99,-0.41 0.17,-0.25 0.26,-0.6 0.26,-1.04 l 0,-3.06 0.89,0 0,3.94 c -0.01,0.38 0.09,0.58 0.33,0.58 0.09,0 0.18,0 0.27,-0.02 l 0,0.7 c -0.08,0.05 -0.27,0.09 -0.55,0.09 -0.27,-0.01 -0.47,-0.08 -0.59,-0.19 -0.12,-0.1 -0.22,-0.27 -0.29,-0.5 -0.31,0.45 -0.74,0.68 -1.3,0.69 -0.48,0 -0.89,-0.21 -1.25,-0.65 l -0.01,0 0,2.51 -0.9,0 0,-7.15" />
      <path
         style="fill:#000000;fill-opacity:1;stroke:none"
         inkscape:connector-curvature="0"
         id="path340"
         d="m 267.48,212.43 c 0.51,-1 0.85,-1.74 1,-2.2 0.22,-0.69 0.34,-1.52 0.34,-2.46 0,-0.94 -0.13,-1.8 -0.39,-2.58 -0.16,-0.48 -0.48,-1.17 -0.96,-2.08 l 0.59,0 c 0.5,0.8 0.8,1.29 0.91,1.48 0.1,0.18 0.22,0.44 0.34,0.77 0.15,0.4 0.26,0.8 0.33,1.2 0.06,0.39 0.1,0.77 0.1,1.14 0,0.96 -0.15,1.82 -0.45,2.57 -0.19,0.48 -0.59,1.19 -1.19,2.14 l -0.61,0" />
      <path
         style="fill:#000000;fill-opacity:1;stroke:none"
         inkscape:connector-curvature="0"
         id="path342"
         d="m 226.54,198.27 0,0.82 -5.09,0 0,-0.82 5.09,0 m 4.96,-2.91 c 0.31,0.57 0.46,1.36 0.46,2.36 0,0.95 -0.14,1.73 -0.42,2.35 -0.41,0.89 -1.08,1.33 -2.01,1.33 -0.83,0 -1.46,-0.36 -1.87,-1.09 -0.34,-0.6 -0.51,-1.42 -0.51,-2.45 0,-0.79 0.1,-1.47 0.3,-2.04 0.38,-1.06 1.07,-1.59 2.08,-1.59 0.9,0 1.55,0.37 1.96,1.11 m -0.88,4.65 c 0.27,-0.4 0.4,-1.15 0.4,-2.25 0,-0.79 -0.09,-1.44 -0.29,-1.96 -0.19,-0.51 -0.57,-0.76 -1.13,-0.76 -0.51,0 -0.89,0.24 -1.13,0.73 -0.23,0.48 -0.35,1.2 -0.35,2.15 0,0.71 0.07,1.28 0.22,1.71 0.23,0.66 0.63,0.99 1.2,0.99 0.45,0 0.81,-0.2 1.08,-0.6 m 2.63,0.15 1.02,0 0,1.06 -1.02,0 0,-1.06 m 2.88,-3.88 0,-0.67 c 0.63,-0.06 1.07,-0.16 1.32,-0.31 0.25,-0.14 0.43,-0.48 0.56,-1.02 l 0.69,0 0,6.96 -0.93,0 0,-4.95 -1.64,0" />
      <path
         style="fill:#000000;fill-opacity:1;stroke:none"
         inkscape:connector-curvature="0"
         id="path344"
         d="m 252.23,195.36 c 0.31,0.57 0.46,1.36 0.46,2.36 0,0.95 -0.14,1.73 -0.42,2.35 -0.41,0.89 -1.08,1.33 -2.01,1.33 -0.83,0 -1.46,-0.36 -1.87,-1.09 -0.34,-0.6 -0.51,-1.42 -0.51,-2.45 0,-0.79 0.1,-1.47 0.3,-2.04 0.38,-1.06 1.07,-1.59 2.08,-1.59 0.9,0 1.55,0.37 1.96,1.11 m -0.88,4.65 c 0.27,-0.4 0.4,-1.15 0.4,-2.25 0,-0.79 -0.09,-1.44 -0.29,-1.96 -0.19,-0.51 -0.57,-0.76 -1.13,-0.76 -0.51,0 -0.89,0.24 -1.13,0.73 -0.23,0.48 -0.35,1.2 -0.35,2.15 0,0.71 0.07,1.28 0.22,1.71 0.23,0.66 0.63,0.99 1.2,0.99 0.45,0 0.81,-0.2 1.08,-0.6" />
      <path
         style="fill:#000000;fill-opacity:1;stroke:none"
         inkscape:connector-curvature="0"
         id="path346"
         d="m 267.54,195.36 c 0.31,0.57 0.46,1.36 0.46,2.36 0,0.95 -0.14,1.73 -0.42,2.35 -0.41,0.89 -1.08,1.33 -2.01,1.33 -0.83,0 -1.46,-0.36 -1.87,-1.09 -0.34,-0.6 -0.51,-1.42 -0.51,-2.45 0,-0.79 0.1,-1.47 0.3,-2.04 0.38,-1.06 1.07,-1.59 2.08,-1.59 0.9,0 1.55,0.37 1.96,1.11 m -0.88,4.65 c 0.27,-0.4 0.4,-1.15 0.4,-2.25 0,-0.79 -0.09,-1.44 -0.29,-1.96 -0.19,-0.51 -0.57,-0.76 -1.13,-0.76 -0.51,0 -0.89,0.24 -1.13,0.73 -0.23,0.48 -0.35,1.2 -0.35,2.15 0,0.71 0.07,1.28 0.22,1.71 0.23,0.66 0.63,0.99 1.2,0.99 0.45,0 0.81,-0.2 1.08,-0.6 m 2.63,0.15 1.02,0 0,1.06 -1.02,0 0,-1.06 m 2.88,-3.88 0,-0.67 c 0.63,-0.06 1.07,-0.16 1.32,-0.31 0.25,-0.14 0.43,-0.48 0.56,-1.02 l 0.69,0 0,6.96 -0.93,0 0,-4.95 -1.64,0" />
    </g>
    <g
       style="fill:none;stroke-width:0.62;stroke-linecap:butt"
       id="g348">
      <path
         inkscape:connector-curvature="0"
         id="path350"
         d="m 217.24,191.33 0,-184.25" />
      <path
         inkscape:connector-curvature="0"
         id="path352"
         d="m 217.24,191.33 1.87,0 m -1.87,-12.28 1.87,0 m -1.87,-12.28 1.87,0 m -1.87,-12.29 1.87,0 m -1.87,-12.28 1.87,0 m -1.87,-12.28 1.87,0 m -1.87,-12.29 1.87,0 m -1.87,-12.28 1.87,0 m -1.87,-12.28 1.87,0 m -1.87,-12.29 1.87,0 m -1.87,-12.28 1.87,0 m -1.87,-12.28 1.87,0 m -1.87,-12.29 1.87,0 m -1.87,-12.28 1.87,0 m -1.87,-12.28 1.87,0 m -1.87,-12.29 1.87,0" />
      <path
         inkscape:connector-curvature="0"
         id="path354"
         d="m 217.24,191.33 3.75,0 m -3.75,-61.41 3.75,0 m -3.75,-61.42 3.75,0 m -3.75,-61.42 3.75,0" />
      <path
         inkscape:connector-curvature="0"
         id="path356"
         d="m 217.24,7.08 66.22,0" />
      <path
         inkscape:connector-curvature="0"
         id="path358"
         d="m 221.13,7.08 0,1.87 m 9.74,-1.87 0,1.87 m 9.74,-1.87 0,1.87 m 9.74,-1.87 0,1.87 m 9.74,-1.87 0,1.87 m 9.74,-1.87 0,1.87 m 9.73,-1.87 0,1.87" />
      <path
         inkscape:connector-curvature="0"
         id="path360"
         d="m 230.87,7.08 0,3.75 m 19.48,-3.75 0,3.75 m 19.48,-3.75 0,3.75" />
    </g>
  </g>
  <path
     d="m 261.61,54.99 -8.20319,0.19575"
     id="path192"
     style="fill:#000000;fill-rule:evenodd;stroke:#000000;stroke-width:1.25;stroke-linecap:square;stroke-linejoin:bevel;stroke-miterlimit:4;stroke-dasharray:none;marker-end:url(#TriangleOutM)"
     inkscape:connector-curvature="0"
     sodipodi:nodetypes="cc" />
  <g
     id="g200"
     style="fill:#000000;fill-rule:evenodd;stroke:#000000;stroke-width:1.25;stroke-linecap:square;stroke-linejoin:bevel">
    <g
       transform="matrix(0.0174,0.9998,-0.9998,0.0174,267.57,115.79)"
       id="g202">
      <path
         d="M 0,0 11.25,0"
         id="path204"
         style="stroke-width:1.2500608;stroke-miterlimit:4;stroke-dasharray:none;marker-end:url(#TriangleOutM)"
         inkscape:connector-curvature="0" />
    </g>
  </g>
  <g
     id="g238"
     style="fill:#000000;fill-rule:evenodd;stroke:#000000;stroke-width:1.25;stroke-linecap:square;stroke-linejoin:bevel">
    <g
       transform="matrix(-0.6944,-0.7195,0.7195,-0.6944,264.25,171.99)"
       id="g240">
      <path
         d="M 0,0 36.42,0"
         id="path242"
         style="marker-mid:none;marker-end:url(#TriangleOutM)"
         inkscape:connector-curvature="0" />
    </g>
  </g>
  <g
     id="g244"
     style="fill:none;stroke:#000000;stroke-width:1.25;stroke-linecap:square;stroke-linejoin:miter">
    <g
       transform="matrix(-0.6944,-0.7195,0.7195,-0.6944,238.96,145.78)"
       id="g246" />
  </g>
  <g
     id="g250"
     style="fill:none;stroke:#000000;stroke-width:1;stroke-linecap:square;stroke-linejoin:bevel">
    <g
       transform="matrix(0,1,-1,0,264.92,43.09)"
       id="g252">
      <path
         d="m 0.86,-8.1 1.09,0 0,7.13 4.1,0 0,0.96 -5.2,0 0,-8.1 m 9.85,6.71 c 0.24,-0.49 0.36,-1.05 0.36,-1.66 0,-0.55 -0.08,-1 -0.26,-1.34 -0.27,-0.54 -0.76,-0.81 -1.44,-0.81 -0.6,0 -1.04,0.23 -1.32,0.69 -0.27,0.46 -0.41,1.02 -0.41,1.67 0,0.62 0.13,1.15 0.41,1.57 0.27,0.41 0.71,0.62 1.31,0.62 0.65,0 1.11,-0.24 1.35,-0.74 m 0.61,-3.93 c 0.52,0.5 0.78,1.25 0.78,2.24 0,0.95 -0.23,1.73 -0.69,2.36 C 10.94,-0.11 10.22,0.2 9.25,0.2 8.44,0.2 7.8,-0.07 7.32,-0.62 6.85,-1.16 6.61,-1.9 6.61,-2.83 c 0,-0.99 0.25,-1.78 0.75,-2.37 0.5,-0.58 1.18,-0.88 2.03,-0.88 0.76,0 1.4,0.25 1.93,0.76 m 2.56,3.46 c 0.02,0.33 0.11,0.58 0.24,0.76 0.25,0.32 0.68,0.48 1.3,0.48 0.36,0 0.69,-0.08 0.97,-0.24 0.27,-0.16 0.41,-0.4 0.41,-0.74 0,-0.25 -0.11,-0.44 -0.33,-0.57 -0.14,-0.08 -0.42,-0.17 -0.84,-0.28 l -0.78,-0.19 c -0.5,-0.12 -0.87,-0.26 -1.11,-0.41 -0.42,-0.26 -0.64,-0.64 -0.64,-1.11 0,-0.55 0.2,-1.01 0.6,-1.35 0.4,-0.34 0.94,-0.51 1.62,-0.51 0.89,0 1.53,0.26 1.92,0.78 0.24,0.33 0.36,0.68 0.35,1.07 l -0.93,0 c -0.01,-0.22 -0.09,-0.42 -0.23,-0.61 -0.22,-0.26 -0.62,-0.39 -1.18,-0.39 -0.37,0 -0.65,0.07 -0.85,0.21 -0.19,0.14 -0.28,0.33 -0.28,0.56 0,0.25 0.12,0.46 0.38,0.61 0.14,0.09 0.36,0.17 0.65,0.24 l 0.65,0.16 c 0.71,0.17 1.19,0.34 1.43,0.5 0.38,0.25 0.57,0.65 0.57,1.19 0,0.52 -0.19,0.98 -0.59,1.36 -0.39,0.38 -1,0.57 -1.82,0.57 -0.87,0 -1.5,-0.19 -1.86,-0.59 -0.36,-0.39 -0.56,-0.89 -0.58,-1.48 l 0.95,0 m 5.65,0 c 0.02,0.33 0.11,0.58 0.24,0.76 0.25,0.32 0.68,0.48 1.3,0.48 0.36,0 0.69,-0.08 0.97,-0.24 0.27,-0.16 0.41,-0.4 0.41,-0.74 0,-0.25 -0.11,-0.44 -0.33,-0.57 C 22,-2.23 21.72,-2.32 21.3,-2.43 l -0.78,-0.19 c -0.5,-0.12 -0.87,-0.26 -1.11,-0.41 -0.42,-0.26 -0.64,-0.64 -0.64,-1.11 0,-0.55 0.2,-1.01 0.6,-1.35 0.4,-0.34 0.94,-0.51 1.62,-0.51 0.89,0 1.53,0.26 1.92,0.78 0.24,0.33 0.36,0.68 0.35,1.07 l -0.93,0 c -0.01,-0.22 -0.09,-0.42 -0.23,-0.61 -0.22,-0.26 -0.62,-0.39 -1.18,-0.39 -0.37,0 -0.65,0.07 -0.85,0.21 -0.19,0.14 -0.28,0.33 -0.28,0.56 0,0.25 0.12,0.46 0.38,0.61 0.14,0.09 0.36,0.17 0.65,0.24 l 0.65,0.16 c 0.71,0.17 1.19,0.34 1.43,0.5 0.38,0.25 0.57,0.65 0.57,1.19 0,0.52 -0.19,0.98 -0.59,1.36 -0.39,0.38 -1,0.57 -1.82,0.57 -0.87,0 -1.5,-0.19 -1.86,-0.59 -0.36,-0.39 -0.56,-0.89 -0.58,-1.48 l 0.95,0"
         id="path254"
         inkscape:connector-curvature="0"
         style="fill:#000000;fill-opacity:1;stroke:none" />
    </g>
    <g
       transform="matrix(0,1,-1,0,264.92,89.16)"
       id="g256">
      <path
         d="m 6.33,-7.87 c 0.8,0.42 1.29,1.16 1.47,2.22 l -1.08,0 C 6.59,-6.24 6.32,-6.67 5.9,-6.94 5.49,-7.21 4.97,-7.34 4.33,-7.34 c -0.75,0 -1.38,0.28 -1.89,0.84 -0.51,0.56 -0.76,1.4 -0.76,2.51 0,0.96 0.21,1.74 0.63,2.35 0.42,0.6 1.11,0.9 2.06,0.9 0.73,0 1.33,-0.21 1.81,-0.63 0.48,-0.42 0.72,-1.11 0.73,-2.06 l -2.53,0 0,-0.91 3.55,0 0,4.33 -0.7,0 -0.26,-1.04 C 6.6,-0.65 6.27,-0.36 5.99,-0.21 5.51,0.06 4.9,0.19 4.16,0.19 3.2,0.19 2.38,-0.12 1.69,-0.74 0.94,-1.51 0.56,-2.59 0.56,-3.95 c 0,-1.35 0.36,-2.43 1.1,-3.23 0.69,-0.76 1.6,-1.14 2.71,-1.14 0.76,0 1.41,0.14 1.97,0.44 m 4.25,6.97 c 0.2,0.16 0.45,0.24 0.74,0.24 0.34,0 0.68,-0.08 1.01,-0.24 0.55,-0.26 0.82,-0.7 0.82,-1.31 l 0,-0.8 c -0.12,0.07 -0.27,0.14 -0.46,0.19 -0.19,0.05 -0.37,0.08 -0.56,0.11 l -0.6,0.07 c -0.36,0.04 -0.63,0.12 -0.81,0.22 -0.3,0.17 -0.45,0.44 -0.45,0.82 0,0.28 0.1,0.51 0.31,0.67 m 2.09,-2.68 c 0.22,-0.02 0.38,-0.12 0.45,-0.28 0.04,-0.08 0.06,-0.21 0.06,-0.38 0,-0.33 -0.12,-0.58 -0.36,-0.73 -0.24,-0.15 -0.58,-0.22 -1.03,-0.22 -0.51,0 -0.88,0.13 -1.1,0.41 -0.12,0.15 -0.2,0.38 -0.23,0.68 l -0.92,0 c 0.01,-0.72 0.25,-1.23 0.7,-1.52 0.45,-0.28 0.98,-0.42 1.58,-0.42 0.69,0 1.25,0.13 1.69,0.39 0.43,0.26 0.64,0.67 0.64,1.23 l 0,3.4 c 0,0.1 0.02,0.18 0.06,0.24 0.04,0.06 0.13,0.09 0.26,0.09 0.04,0 0.09,0 0.14,0 0.05,0 0.11,-0.01 0.17,-0.02 l 0,0.73 c -0.15,0.04 -0.27,0.07 -0.35,0.08 -0.08,0.01 -0.19,0.01 -0.33,0.01 -0.34,0 -0.59,-0.12 -0.74,-0.36 -0.08,-0.12 -0.13,-0.31 -0.17,-0.54 -0.2,0.26 -0.49,0.49 -0.87,0.68 -0.37,0.19 -0.79,0.29 -1.25,0.29 -0.54,0 -0.99,-0.16 -1.34,-0.49 -0.34,-0.33 -0.52,-0.74 -0.52,-1.24 0,-0.54 0.17,-0.97 0.51,-1.27 0.34,-0.3 0.79,-0.48 1.34,-0.55 l 1.58,-0.19 m 3.11,-2.3 1,0 0,5.88 -1,0 0,-5.88 m 0,-2.22 1,0 0,1.12 -1,0 0,-1.12 m 2.5,2.19 0.94,0 0,0.83 c 0.27,-0.34 0.57,-0.59 0.88,-0.74 0.31,-0.15 0.66,-0.22 1.04,-0.22 0.83,0 1.4,0.29 1.69,0.87 0.16,0.32 0.24,0.77 0.24,1.37 l 0,3.79 -1,0 0,-3.72 c 0,-0.36 -0.05,-0.65 -0.16,-0.87 -0.17,-0.36 -0.49,-0.55 -0.96,-0.55 -0.23,0 -0.42,0.02 -0.57,0.07 -0.27,0.08 -0.51,0.24 -0.71,0.48 -0.16,0.19 -0.27,0.39 -0.32,0.6 -0.04,0.2 -0.07,0.5 -0.07,0.89 l 0,3.09 -0.99,0 0,-5.9"
         id="path258"
         inkscape:connector-curvature="0"
         style="fill:#000000;fill-opacity:1;stroke:none" />
    </g>
  </g>
  <g
     transform="matrix(1.25,0,0,-1.25,0.962033,1052.6796)"
     id="g4267">
    <g
       id="g25340"
       transform="matrix(1.0519786,0,0,-1.0519786,-720.59182,1873.2761)">
      <path
         inkscape:connector-curvature="0"
         id="path3351"
         d="m 810,1094.3608 6,6 6,-6 z"
         style="fill:#5f8dd3;fill-opacity:1;stroke:none"
         sodipodi:nodetypes="cccc" />
      <path
         style="fill:#5f8dd3;fill-opacity:1;stroke:none"
         d="M 800.02233,1116.3731 810,1106.3608 l 12,0 10.02233,10.0123 z"
         id="path3309"
         inkscape:connector-curvature="0"
         sodipodi:nodetypes="ccccc" />
      <path
         inkscape:connector-curvature="0"
         id="path3319"
         d="m 810,1106.3608 12,0"
         style="fill:none;stroke:#000000;stroke-width:0.47529483;stroke-linecap:butt;stroke-linejoin:miter;stroke-miterlimit:4;stroke-opacity:1;stroke-dasharray:1.42588443, 1.42588443;stroke-dashoffset:0"
         sodipodi:nodetypes="cc" />
      <path
         style="fill:none;stroke:#000000;stroke-width:0.47529483;stroke-linecap:butt;stroke-linejoin:miter;stroke-miterlimit:4;stroke-opacity:1;stroke-dasharray:1.42588443, 1.42588443;stroke-dashoffset:0"
         d="m 810,1094.3608 12,0"
         id="path3353"
         inkscape:connector-curvature="0"
         sodipodi:nodetypes="cc" />
      <g
         id="g25328"
         transform="matrix(0.63020212,0,0,0.63020287,360.46815,404.38945)">
        <g
           id="g25330">
          <path
             sodipodi:nodetypes="ccc"
             inkscape:connector-curvature="0"
             id="path25332"
             d="m 748.21346,1078.9836 -25.37894,25.3772 -25.39842,-25.4002"
             style="fill:none;stroke:#000000;stroke-width:0.75419378;stroke-linecap:butt;stroke-linejoin:miter;stroke-miterlimit:4;stroke-opacity:1;stroke-dasharray:none" />
        </g>
      </g>
      <g
         transform="matrix(0.63020212,0,0,-0.63020287,360.47429,1796.3249)"
         id="g25334">
        <g
           id="g25336">
          <path
             style="fill:none;stroke:#000000;stroke-width:0.75419378;stroke-linecap:butt;stroke-linejoin:miter;stroke-miterlimit:4;stroke-opacity:1;stroke-dasharray:none"
             d="m 748.21346,1078.9836 -25.37894,25.3772 -25.39842,-25.4002"
             id="path25338"
             inkscape:connector-curvature="0"
             sodipodi:nodetypes="ccc" />
        </g>
      </g>
      <path
         sodipodi:nodetypes="cc"
         inkscape:connector-curvature="0"
         id="path6269-8"
         d="m 825.28762,1094.3608 0,12"
         style="fill:none;stroke:#000000;stroke-width:0.47529483;stroke-linecap:butt;stroke-linejoin:miter;stroke-miterlimit:4;stroke-opacity:1;stroke-dasharray:none;marker-start:url(#StopM);marker-end:url(#StopM)" />
      <g
         ns0:text="$\\bar{\xce\xbc}$"
         ns0:preamble="/home/afp11/.config/inkscape/extensions/textext.pre"
         transform="matrix(0.80000001,0,0,0.80000001,648.30277,993.44878)"
         id="g13885">
        <defs
           id="defs13887" />
        <g
           id="g9896">
          <g
             style="fill:#000000;fill-opacity:1"
             id="g13898">
            <use
               height="1052.3622"
               width="744.09448"
               xlink:href="#textext-6e60d68d-0"
               x="224.22"
               y="134.765"
               id="use13900" />
          </g>
          <g
             style="fill:#000000;fill-opacity:1"
             id="g13902">
            <use
               height="1052.3622"
               width="744.09448"
               xlink:href="#textext-6e60d68d-1"
               x="223.43201"
               y="134.765"
               id="use13904" />
          </g>
        </g>
      </g>
    </g>
    <g
       ns0:text="$2\xce\xbc$"
       ns0:preamble="/home/afp11/.config/inkscape/extensions/textext.pre"
       transform="matrix(0.77868103,0,0,-0.77868103,-24.237816,818.09949)"
       id="g5468">
      <defs
         id="defs5470">
        <g
           id="g5472">
          <symbol
             overflow="visible"
             id="textext-ea754e96-0"
             style="overflow:visible">
            <path
               style="stroke:none"
               d="m 1.265625,-0.765625 1.0625,-1.03125 c 1.546875,-1.375 2.140625,-1.90625 2.140625,-2.90625 0,-1.140625 -0.890625,-1.9375 -2.109375,-1.9375 -1.125,0 -1.859375,0.921875 -1.859375,1.8125 0,0.546875 0.5,0.546875 0.53125,0.546875 0.171875,0 0.515625,-0.109375 0.515625,-0.53125 0,-0.25 -0.1875,-0.515625 -0.53125,-0.515625 -0.078125,0 -0.09375,0 -0.125,0.015625 0.21875,-0.65625 0.765625,-1.015625 1.34375,-1.015625 0.90625,0 1.328125,0.8125 1.328125,1.625 C 3.5625,-3.90625 3.078125,-3.125 2.515625,-2.5 l -1.90625,2.125 C 0.5,-0.265625 0.5,-0.234375 0.5,0 l 3.703125,0 0.265625,-1.734375 -0.234375,0 C 4.171875,-1.4375 4.109375,-1 4,-0.84375 3.9375,-0.765625 3.28125,-0.765625 3.0625,-0.765625 z m 0,0"
               id="path5475"
               inkscape:connector-curvature="0" />
          </symbol>
          <symbol
             overflow="visible"
             id="textext-ea754e96-1"
             style="overflow:visible">
            <path
               style="stroke:none"
               d="m 2.296875,-3.5 c 0.0625,-0.203125 0.15625,-0.59375 0.15625,-0.640625 0,-0.171875 -0.125,-0.265625 -0.296875,-0.265625 -0.015625,0 -0.296875,0.015625 -0.390625,0.359375 l -1.4375,5.765625 c -0.03125,0.125 -0.03125,0.140625 -0.03125,0.171875 0,0.140625 0.109375,0.265625 0.28125,0.265625 0.203125,0 0.328125,-0.1875 0.34375,-0.21875 C 0.96875,1.859375 1.09375,1.328125 1.46875,-0.203125 1.796875,0.0625 2.25,0.109375 2.4375,0.109375 c 0.703125,0 1.09375,-0.453125 1.328125,-0.734375 0.09375,0.453125 0.46875,0.734375 0.90625,0.734375 0.34375,0 0.578125,-0.234375 0.734375,-0.546875 0.171875,-0.359375 0.296875,-0.96875 0.296875,-0.984375 0,-0.109375 -0.09375,-0.109375 -0.125,-0.109375 -0.09375,0 -0.109375,0.046875 -0.140625,0.1875 -0.15625,0.640625 -0.34375,1.234375 -0.75,1.234375 -0.265625,0 -0.296875,-0.265625 -0.296875,-0.453125 0,-0.21875 0.109375,-0.6875 0.1875,-1.046875 L 4.859375,-2.6875 C 4.890625,-2.828125 5,-3.203125 5.03125,-3.359375 5.078125,-3.59375 5.1875,-3.96875 5.1875,-4.03125 c 0,-0.171875 -0.140625,-0.265625 -0.296875,-0.265625 -0.046875,0 -0.3125,0.015625 -0.390625,0.34375 l -0.46875,1.875 c -0.109375,0.5 -0.21875,0.90625 -0.25,1.015625 -0.015625,0.046875 -0.484375,0.953125 -1.296875,0.953125 -0.5,0 -0.734375,-0.328125 -0.734375,-0.875 0,-0.28125 0.0625,-0.5625 0.140625,-0.84375 z m 0,0"
               id="path5478"
               inkscape:connector-curvature="0" />
          </symbol>
        </g>
      </defs>
      <g
         id="textext-ea754e96-2">
        <g
           style="fill:#000000;fill-opacity:1"
           id="g5481">
          <use
             xlink:href="#textext-ea754e96-0"
             x="223.43201"
             y="134.765"
             id="use5483"
             width="744.09448"
             height="1052.3622" />
        </g>
        <g
           style="fill:#000000;fill-opacity:1"
           id="g5485">
          <use
             xlink:href="#textext-ea754e96-1"
             x="228.41299"
             y="134.765"
             id="use5487"
             width="744.09448"
             height="1052.3622" />
        </g>
      </g>
    </g>
  </g>
  <text
     xml:space="preserve"
     style="font-size:10px;font-style:normal;font-variant:normal;font-weight:normal;font-stretch:normal;text-align:start;line-height:125%;letter-spacing:0px;word-spacing:0px;text-anchor:start;fill:#000000;fill-opacity:1;stroke:none;font-family:Nimbus Sans L;-inkscape-font-specification:Nimbus Sans L"
     x="23.946281"
     y="19.370001"
     id="text5093"
     sodipodi:linespacing="125%"><tspan
       sodipodi:role="line"
       id="tspan5095"
       x="23.946281"
       y="19.370001"
       style="font-family:Helvetica;-inkscape-font-specification:Helvetica">(a)</tspan></text>
  <text
     sodipodi:linespacing="125%"
     id="text5097"
     y="19.370001"
     x="219.85881"
     style="font-size:10px;font-style:normal;font-variant:normal;font-weight:normal;font-stretch:normal;text-align:start;line-height:125%;letter-spacing:0px;word-spacing:0px;text-anchor:start;fill:#000000;fill-opacity:1;stroke:none;font-family:Nimbus Sans L;-inkscape-font-specification:Nimbus Sans L"
     xml:space="preserve"><tspan
       y="19.370001"
       x="219.85881"
       id="tspan5099"
       sodipodi:role="line"
       style="-inkscape-font-specification:Helvetica;font-family:Helvetica">(b)</tspan></text>
  <flowRoot
     xml:space="preserve"
     id="flowRoot6844"
     style="fill:black;stroke:none;stroke-opacity:1;stroke-width:1px;stroke-linejoin:miter;stroke-linecap:butt;fill-opacity:1;font-family:Nimbus Sans L;font-style:normal;font-weight:normal;font-size:10px;line-height:125%;letter-spacing:0px;word-spacing:0px;text-anchor:start;text-align:start;-inkscape-font-specification:Nimbus Sans L;font-stretch:normal;font-variant:normal"><flowRegion
       id="flowRegion6846"><rect
         id="rect6848"
         width="30.326849"
         height="17.222654"
         x="-7.1137052"
         y="37.368202" /></flowRegion><flowPara
       id="flowPara6850" /></flowRoot>  <text
     xml:space="preserve"
     style="font-size:8px;font-style:normal;font-variant:normal;font-weight:normal;font-stretch:normal;text-align:start;line-height:125%;letter-spacing:0px;word-spacing:0px;text-anchor:start;fill:#000000;fill-opacity:1;stroke:none;font-family:Linux Biolinum O;-inkscape-font-specification:Linux Biolinum O"
     x="26.582796"
     y="37.555401"
     id="text3193"
     sodipodi:linespacing="125%"><tspan
       sodipodi:role="line"
       id="tspan3195"
       x="26.582796"
       y="37.555401"
       style="font-size:10px;font-family:Helvetica;-inkscape-font-specification:Helvetica"
       dx="0 0 0 0 1">k<tspan
   style="font-size:65.00091553%;baseline-shift:sub"
   id="tspan3197">B</tspan>T<tspan
   style="font-size:65.00091553%;baseline-shift:sub"
   id="tspan3199"
   dx="-1">c</tspan>/(2)</tspan></text>
  <text
     sodipodi:linespacing="125%"
     id="text3201"
     y="-227.0396"
     x="139.6048"
     style="font-size:8px;font-style:normal;font-variant:normal;font-weight:normal;font-stretch:normal;text-align:start;line-height:125%;letter-spacing:0px;word-spacing:0px;text-anchor:start;fill:#000000;fill-opacity:1;stroke:none;font-family:Linux Biolinum O;-inkscape-font-specification:Linux Biolinum O"
     xml:space="preserve"
     transform="matrix(0,1,-1,0,0,0)"><tspan
       style="font-size:10px;font-family:Helvetica;-inkscape-font-specification:Helvetica"
       y="-227.0396"
       x="139.6048"
       id="tspan3203"
       sodipodi:role="line"
       dx="0 0 0 0 1">k<tspan
   id="tspan3205"
   style="font-size:65.00091553%;baseline-shift:sub">B</tspan>T<tspan
   id="tspan3207"
   style="font-size:65.00091553%;baseline-shift:sub"
   dx="-1">c</tspan>/(2)</tspan></text>
</svg>
